<svg xmlns="http://www.w3.org/2000/svg" xmlns:xlink="http://www.w3.org/1999/xlink" width="200" zoomAndPan="magnify" viewBox="0 0 150 149.999998" height="200" preserveAspectRatio="xMidYMid meet" version="1.0"><path fill="#a5c713" d="M 80.195312 8.414062 C 84.738281 10.167969 88.136719 12.945312 91.277344 16.628906 C 93.347656 19.253906 95.019531 22.066406 96.609375 25 L 98.097656 24.605469 C 104.53125 22.949219 110.671875 21.882812 117.253906 23.554688 C 120.085938 24.503906 122.363281 25.734375 124.445312 27.898438 C 126.34375 30.226562 127.695312 32.523438 128.445312 35.449219 C 129.320312 41.011719 128.757812 46.464844 127.183594 51.828125 C 126.707031 53.273438 126.707031 53.273438 126.769531 54.71875 L 128.238281 55.480469 C 133.554688 58.3125 138.015625 61.253906 141.410156 66.390625 C 142.765625 68.609375 143.640625 70.660156 143.878906 73.269531 C 143.886719 76.585938 143.855469 79.554688 142.320312 82.546875 C 141.492188 83.917969 140.546875 85.117188 139.496094 86.320312 L 138.582031 87.367188 C 135.796875 90.355469 132.640625 92.324219 129.125 94.339844 C 128.339844 94.808594 127.554688 95.28125 126.769531 95.753906 L 127.183594 97.582031 L 127.441406 98.777344 C 127.605469 99.527344 127.785156 100.273438 127.984375 101.015625 C 129.097656 105.527344 129.292969 110.761719 128.296875 115.308594 C 127.183594 118.519531 125.625 121.078125 123.148438 123.40625 C 120.742188 125.441406 118.054688 126.679688 114.988281 127.355469 C 108.367188 127.972656 102.429688 127.011719 96.136719 125 L 95.785156 126.230469 C 94.1875 130.566406 90.777344 134.496094 87.472656 137.660156 C 84.660156 139.984375 81.367188 141.78125 77.757812 142.449219 C 74.566406 142.78125 71.769531 142.242188 68.804688 141.035156 C 64.128906 138.789062 60.816406 135.464844 57.898438 131.230469 C 55.101562 127.066406 55.101562 127.066406 54.667969 125 L 53.304688 125.394531 L 51.515625 125.914062 L 49.742188 126.425781 C 44.929688 127.746094 39.714844 127.847656 34.769531 127.140625 C 31.601562 126.285156 28.921875 124.554688 26.507812 122.359375 C 24.273438 119.984375 23.121094 117.109375 22.34375 113.972656 C 21.703125 109.863281 22.007812 105.945312 22.972656 101.945312 C 23.324219 100.316406 23.605469 98.96875 23.417969 97.3125 C 22.984375 96.089844 22.539062 95.3125 21.679688 94.339844 C 20.457031 93.421875 19.203125 92.65625 17.882812 91.890625 C 14.34375 89.71875 11.054688 86.628906 8.953125 83.019531 C 7.417969 79.917969 6.753906 77.007812 6.886719 73.546875 C 7.289062 70.503906 8.484375 67.988281 10.25 65.507812 C 10.75 64.890625 11.261719 64.28125 11.78125 63.679688 L 12.570312 62.757812 C 15.929688 59.113281 20.292969 56.765625 24.503906 54.246094 L 24.109375 52.902344 L 23.59375 51.121094 L 23.078125 49.363281 C 21.917969 45.007812 21.640625 40.320312 22.382812 35.859375 C 23.242188 32.730469 24.65625 30.167969 26.832031 27.769531 C 29.382812 25.296875 31.925781 24.019531 35.34375 23.113281 C 41.621094 21.816406 48.144531 23.171875 54.195312 25 C 54.453125 24.578125 54.710938 24.15625 54.972656 23.722656 C 58.160156 18.574219 61.796875 13.242188 67.164062 10.171875 C 71.398438 7.992188 75.457031 7.164062 80.195312 8.414062 M 68.683594 18.796875 C 65.882812 21.410156 63.878906 24.386719 62.207031 27.832031 L 62.207031 28.773438 L 63.808594 29.605469 C 64.523438 29.976562 65.234375 30.347656 65.949219 30.722656 L 67.058594 31.300781 C 69.367188 32.523438 71.523438 33.816406 73.582031 35.425781 L 74.460938 35.851562 C 76.269531 35.632812 77.582031 35.042969 79.144531 34.128906 L 80.449219 33.371094 L 81.792969 32.578125 C 82.675781 32.0625 83.5625 31.546875 84.445312 31.03125 L 85.628906 30.335938 C 86.601562 29.78125 87.585938 29.265625 88.597656 28.773438 C 88.203125 25.871094 86.542969 23.992188 84.828125 21.699219 L 83.738281 20.167969 C 81.960938 18.347656 80.089844 17.058594 77.757812 16.039062 C 74.191406 15.261719 71.410156 16.5625 68.683594 18.796875 M 33.929688 32.078125 C 32.429688 33.25 31.449219 34.539062 30.722656 36.300781 C 29.394531 40.9375 30.527344 45.421875 31.574219 50 L 32.046875 51.414062 C 35.453125 50.675781 38.828125 49.851562 42.207031 49 L 43.785156 48.601562 C 45.054688 48.28125 46.328125 47.964844 47.597656 47.640625 L 47.84375 46.664062 L 51.367188 32.546875 C 50.042969 32.226562 48.71875 31.914062 47.390625 31.605469 L 46.273438 31.332031 C 42.050781 30.359375 37.929688 30.160156 33.929688 32.078125 M 99.90625 32.546875 C 100.210938 35.15625 100.820312 37.558594 101.585938 40.066406 L 101.921875 41.179688 C 102.191406 42.078125 102.460938 42.972656 102.734375 43.867188 L 104.082031 43.992188 C 109.011719 44.53125 113.328125 45.582031 117.460938 48.496094 L 118.757812 49.527344 C 119.855469 48.582031 119.855469 48.582031 120.230469 46.816406 C 120.910156 43.429688 121.160156 39.8125 120.320312 36.4375 C 119.605469 34.628906 118.914062 33.628906 117.433594 32.34375 C 114.875 31.085938 112.519531 30.476562 109.683594 30.535156 C 106.410156 30.855469 103.027344 31.507812 99.90625 32.546875 M 58.90625 35.851562 L 58.441406 37.28125 L 57.816406 39.183594 L 57.511719 40.121094 C 57.203125 41.058594 56.882812 41.992188 56.550781 42.925781 L 56.234375 43.832031 C 55.699219 45.21875 55.191406 46.175781 54.117188 47.210938 L 52.957031 48.023438 C 50.714844 49.707031 48.914062 51.5625 47.085938 53.679688 C 45.046875 56.027344 45.046875 56.027344 43.839844 56.488281 L 42.792969 56.738281 L 41.652344 57.027344 C 40.859375 57.21875 40.066406 57.40625 39.273438 57.597656 L 38.140625 57.886719 L 37.097656 58.136719 L 36.289062 58.492188 L 35.816406 59.90625 C 36.277344 61.007812 36.277344 61.007812 36.964844 62.117188 L 37.640625 63.273438 L 38.171875 64.152344 L 39.96875 63.679688 C 44.875 62.71875 50.316406 62.589844 55.136719 63.972656 C 58.171875 65.066406 61.632812 66.402344 63.941406 68.71875 L 64.5625 69.339844 L 65.503906 69.339844 L 65.894531 70.191406 C 66.433594 71.203125 66.984375 71.855469 67.773438 72.671875 C 70.183594 75.40625 71.621094 79.054688 72.574219 82.546875 C 73.5 87.464844 73.019531 91.894531 71.632812 96.699219 C 70.027344 101.015625 67.53125 104.488281 64.09375 107.546875 C 62.144531 108.964844 60.078125 110.164062 57.964844 111.320312 L 58.90625 114.148438 C 60.570312 113.664062 61.78125 113.175781 63.207031 112.175781 C 64.324219 111.515625 64.976562 111.320312 66.285156 111.285156 C 67.761719 111.414062 69.222656 111.589844 70.691406 111.792969 C 73.953125 112.199219 76.921875 112.285156 80.175781 111.8125 C 85.121094 111.101562 85.121094 111.101562 87.445312 111.886719 C 88.832031 112.675781 88.832031 112.675781 89.996094 113.496094 L 90.953125 114.148438 L 92.367188 114.148438 C 92.605469 113.402344 92.84375 112.65625 93.074219 111.910156 L 93.472656 110.648438 C 93.859375 109.335938 93.859375 109.335938 93.78125 107.546875 L 94.773438 107.207031 C 96.390625 106.488281 97.726562 105.53125 99.113281 104.449219 L 99.929688 103.816406 C 102.847656 101.496094 105.386719 99.035156 107.007812 95.636719 C 107.53125 94.714844 107.53125 94.714844 108.390625 93.867188 C 110.695312 92.847656 113.027344 92.144531 115.460938 91.507812 L 114.824219 90.46875 C 112.683594 86.660156 112.683594 86.660156 112.550781 84.511719 C 112.648438 83.601562 112.761719 82.691406 112.890625 81.78125 C 113.753906 75.296875 113.21875 68.789062 110.828125 62.679688 C 108.101562 56.277344 104.003906 50.984375 98.496094 46.699219 C 97.820312 46.375 97.144531 46.0625 96.460938 45.753906 C 95.554688 45.25 95.554688 45.25 94.722656 44.339844 C 93.59375 41.785156 92.988281 39.035156 92.367188 36.320312 L 90.953125 36.320312 C 90.230469 36.769531 89.511719 37.226562 88.796875 37.6875 C 86.882812 38.890625 85.027344 39.96875 82.753906 40.21875 C 80.746094 40.226562 78.773438 40.023438 76.78125 39.8125 C 74.945312 39.621094 73.320312 39.707031 71.496094 39.964844 C 69.527344 40.238281 67.765625 40.410156 65.871094 39.703125 C 63.589844 38.601562 61.492188 37.246094 59.378906 35.851562 Z M 25.859375 62.734375 C 22.175781 64.917969 19.015625 67.492188 16.230469 70.753906 C 15.488281 72.304688 15.09375 73.558594 14.976562 75.269531 C 15.140625 77.066406 15.777344 78.445312 16.644531 80.011719 C 17.90625 81.796875 19.464844 83.128906 21.207031 84.433594 C 22.238281 83.546875 22.238281 83.546875 22.539062 82.238281 L 22.945312 80.6875 C 24.363281 75.941406 26.820312 72.425781 30.394531 69.039062 L 31.101562 68.394531 C 30.519531 66.894531 29.890625 65.441406 29.160156 64.003906 L 28.65625 63.007812 L 28.277344 62.265625 C 26.890625 62.164062 26.890625 62.164062 25.859375 62.734375 M 124.886719 63.207031 L 124.863281 64.144531 C 124.652344 68.242188 123.542969 71.757812 121.308594 75.21875 C 120.367188 76.492188 119.40625 77.652344 118.289062 78.773438 C 118.386719 81.097656 119.714844 82.902344 120.910156 84.816406 L 121.515625 85.808594 C 122.007812 86.609375 122.503906 87.410156 123 88.207031 C 127.035156 86.707031 130.617188 84.253906 133.558594 81.117188 C 134.695312 79.710938 135.222656 78.640625 135.722656 76.886719 C 135.949219 75.367188 136.035156 74.558594 135.722656 73.113281 C 134.5625 70.257812 132.886719 68.242188 130.511719 66.304688 C 129.007812 65.164062 127.480469 64.121094 125.828125 63.207031 Z M 28.746094 91.039062 L 28.277344 91.507812 C 28.320312 93.929688 28.777344 95.566406 29.984375 97.671875 C 32.136719 101.007812 34.511719 103.335938 38.050781 105.15625 C 41.066406 106.582031 43.289062 107.253906 46.65625 107.074219 L 47.125 104.714844 C 45.730469 103.785156 44.902344 103.539062 43.296875 103.183594 C 40.175781 102.359375 37.839844 100.96875 35.480469 98.777344 C 33.734375 96.890625 32.726562 94.839844 31.75 92.46875 L 31.101562 91.507812 C 29.917969 91.0625 29.917969 91.0625 28.746094 91.039062 M 114.519531 99.640625 L 113.160156 100.015625 L 111.75 100.410156 L 110.347656 100.796875 C 109.457031 101.042969 108.566406 101.296875 107.675781 101.550781 C 106.730469 101.820312 105.777344 102.070312 104.824219 102.300781 L 103.679688 102.828125 C 103.027344 103.816406 103.027344 103.816406 102.734375 105.1875 L 102.464844 106.164062 C 102.152344 107.3125 101.847656 108.457031 101.558594 109.609375 C 101.355469 110.390625 101.15625 111.167969 100.953125 111.949219 L 100.664062 113.074219 C 100.273438 114.539062 99.863281 115.996094 99.4375 117.453125 C 100.09375 117.679688 100.75 117.90625 101.410156 118.128906 L 102.519531 118.511719 C 106.222656 119.648438 110.203125 119.699219 114.046875 119.339844 C 115.671875 118.914062 116.425781 118.460938 117.816406 117.453125 C 119.410156 115.855469 120.03125 114.410156 120.644531 112.261719 C 121.070312 108.035156 120.414062 104.058594 119.230469 100 L 118.757812 99.054688 C 117.121094 99.054688 116.066406 99.214844 114.519531 99.640625 M 30.160156 107.546875 C 30 110.503906 30.371094 112.84375 31.574219 115.566406 C 32.332031 116.945312 32.332031 116.945312 33.460938 117.921875 C 35.871094 119.164062 37.863281 119.570312 40.585938 119.515625 L 41.636719 119.503906 C 44.800781 119.425781 47.90625 119.011719 50.898438 117.921875 L 51.367188 116.980469 C 50.925781 115.867188 50.457031 114.765625 49.953125 113.679688 L 48.398438 113.539062 C 42.53125 112.960938 37.570312 111.878906 32.546875 108.617188 C 31.542969 107.945312 31.542969 107.945312 30.160156 107.546875 M 74.929688 114.148438 C 73.925781 114.769531 72.9375 115.40625 71.957031 116.066406 C 68.800781 118.144531 65.5625 119.960938 62.207031 121.695312 C 63.605469 125.484375 65.894531 129.113281 68.863281 131.867188 C 70.457031 133.089844 72.039062 133.933594 73.988281 134.433594 C 76.207031 134.582031 77.878906 134.113281 79.910156 133.222656 C 83.574219 130.839844 85.875 127.613281 88.054688 123.882812 L 88.597656 122.640625 L 88.125 121.226562 C 87.394531 120.6875 87.394531 120.6875 86.476562 120.257812 L 85.449219 119.734375 L 84.355469 119.191406 C 81.652344 117.8125 79.078125 116.402344 76.613281 114.621094 L 75.875 114.148438 Z M 74.929688 114.148438 " fill-opacity="1" fill-rule="nonzero"/><path fill="#2082c4" d="M 80.195312 8.414062 C 84.738281 10.167969 88.136719 12.945312 91.277344 16.628906 C 93.347656 19.253906 95.019531 22.066406 96.609375 25 L 98.097656 24.605469 C 104.53125 22.949219 110.671875 21.882812 117.253906 23.554688 C 120.085938 24.503906 122.363281 25.734375 124.445312 27.898438 C 126.34375 30.226562 127.695312 32.523438 128.445312 35.449219 C 129.320312 41.011719 128.757812 46.464844 127.183594 51.828125 C 126.707031 53.273438 126.707031 53.273438 126.769531 54.71875 L 128.238281 55.480469 C 133.554688 58.3125 138.015625 61.253906 141.410156 66.390625 C 142.765625 68.609375 143.640625 70.660156 143.878906 73.269531 C 143.886719 76.585938 143.855469 79.554688 142.320312 82.546875 C 141.492188 83.917969 140.546875 85.117188 139.496094 86.320312 L 138.582031 87.367188 C 135.796875 90.355469 132.640625 92.324219 129.125 94.339844 C 128.339844 94.808594 127.554688 95.28125 126.769531 95.753906 L 127.183594 97.582031 L 127.441406 98.777344 C 127.605469 99.527344 127.785156 100.273438 127.984375 101.015625 C 129.097656 105.527344 129.292969 110.761719 128.296875 115.308594 C 127.183594 118.519531 125.625 121.078125 123.148438 123.40625 C 120.742188 125.441406 118.054688 126.679688 114.988281 127.355469 C 106.625 128.140625 98.914062 126.578125 91.277344 123.199219 C 89.902344 122.5625 88.539062 121.90625 87.183594 121.226562 L 86.199219 120.730469 C 82.890625 119.058594 79.703125 117.328125 76.78125 115.015625 C 76.484375 114.886719 76.183594 114.753906 75.875 114.621094 C 73.914062 115.132812 72.296875 116.28125 70.601562 117.363281 C 68.046875 118.96875 65.460938 120.519531 62.679688 121.695312 L 61.734375 121.695312 C 61.261719 120.617188 60.792969 119.535156 60.320312 118.453125 L 59.914062 117.523438 C 58.90625 115.199219 58.90625 115.199219 58.90625 114.148438 C 63.84375 110.957031 63.84375 110.957031 66.484375 110.71875 C 67.90625 110.851562 69.285156 111.066406 70.691406 111.320312 C 73.9375 111.742188 76.875 111.816406 80.105469 111.316406 C 84.839844 110.601562 84.839844 110.601562 86.816406 111.125 C 88.800781 111.910156 90.589844 112.960938 92.367188 114.148438 L 92.558594 113.183594 L 92.808594 111.910156 L 93.058594 110.648438 L 93.308594 109.433594 L 93.414062 108.445312 L 93.78125 107.546875 C 94.914062 106.667969 94.914062 106.667969 96.375 105.777344 C 100.632812 103.035156 103.726562 100.199219 106.589844 95.996094 C 107.441406 94.820312 108.21875 93.859375 109.332031 92.925781 C 110.652344 92.429688 110.652344 92.429688 112.042969 92.097656 L 113.449219 91.753906 L 114.515625 91.507812 L 114.515625 90.09375 C 114.128906 89.464844 113.726562 88.847656 113.308594 88.238281 C 112.578125 86.953125 112.171875 86.09375 112.109375 84.609375 C 112.207031 83.683594 112.316406 82.757812 112.4375 81.832031 C 113.261719 74.902344 112.675781 68.132812 109.933594 61.683594 C 107.300781 55.929688 103.546875 51.023438 98.496094 47.171875 L 97.367188 46.59375 C 96.082031 45.929688 95.242188 45.410156 94.253906 44.339844 C 93.089844 41.796875 92.5 39.039062 91.898438 36.320312 L 90.433594 37.132812 L 88.507812 38.179688 L 87.546875 38.710938 C 85.867188 39.621094 84.402344 40.402344 82.472656 40.566406 C 81.238281 40.515625 80.019531 40.4375 78.789062 40.332031 C 76.667969 40.160156 74.636719 40.023438 72.523438 40.316406 C 67.929688 40.933594 67.929688 40.933594 65.988281 40.226562 C 64.351562 39.429688 62.828125 38.464844 61.292969 37.496094 C 56.890625 34.714844 51.941406 33.023438 46.890625 31.871094 L 45.867188 31.636719 C 42.648438 30.96875 39.359375 30.746094 36.167969 31.664062 C 34.671875 32.164062 33.597656 32.648438 32.515625 33.816406 C 31.113281 36.148438 30.722656 38.144531 30.484375 40.832031 C 30.542969 43.394531 31.191406 45.90625 31.738281 48.402344 C 32.046875 50 32.046875 50 32.046875 51.886719 C 31.054688 52.28125 30.0625 52.675781 29.070312 53.066406 L 27.398438 53.730469 C 25.917969 54.246094 25.917969 54.246094 24.503906 54.246094 C 24.199219 53.203125 23.894531 52.164062 23.59375 51.121094 L 23.078125 49.363281 C 21.917969 45.007812 21.640625 40.320312 22.382812 35.859375 C 23.242188 32.730469 24.65625 30.167969 26.832031 27.769531 C 29.382812 25.296875 31.925781 24.019531 35.34375 23.113281 C 41.621094 21.816406 48.144531 23.171875 54.195312 25 C 54.453125 24.578125 54.710938 24.15625 54.972656 23.722656 C 58.160156 18.574219 61.796875 13.242188 67.164062 10.171875 C 71.398438 7.992188 75.457031 7.164062 80.195312 8.414062 M 68.683594 18.796875 C 65.882812 21.410156 63.878906 24.386719 62.207031 27.832031 L 62.207031 28.773438 L 63.808594 29.605469 C 64.523438 29.976562 65.234375 30.347656 65.949219 30.722656 L 67.058594 31.300781 C 69.367188 32.523438 71.523438 33.816406 73.582031 35.425781 L 74.460938 35.851562 C 76.269531 35.632812 77.582031 35.042969 79.144531 34.128906 L 80.449219 33.371094 L 81.792969 32.578125 C 82.675781 32.0625 83.5625 31.546875 84.445312 31.03125 L 85.628906 30.335938 C 86.601562 29.78125 87.585938 29.265625 88.597656 28.773438 C 88.203125 25.871094 86.542969 23.992188 84.828125 21.699219 L 83.738281 20.167969 C 81.960938 18.347656 80.089844 17.058594 77.757812 16.039062 C 74.191406 15.261719 71.410156 16.5625 68.683594 18.796875 M 99.90625 32.546875 C 100.210938 35.15625 100.820312 37.558594 101.585938 40.066406 L 101.921875 41.179688 C 102.191406 42.078125 102.460938 42.972656 102.734375 43.867188 L 104.082031 43.992188 C 109.011719 44.53125 113.328125 45.582031 117.460938 48.496094 L 118.757812 49.527344 C 119.855469 48.582031 119.855469 48.582031 120.230469 46.816406 C 120.910156 43.429688 121.160156 39.8125 120.320312 36.4375 C 119.605469 34.628906 118.914062 33.628906 117.433594 32.34375 C 114.875 31.085938 112.519531 30.476562 109.683594 30.535156 C 106.410156 30.855469 103.027344 31.507812 99.90625 32.546875 M 124.886719 63.207031 L 124.863281 64.144531 C 124.652344 68.242188 123.542969 71.757812 121.308594 75.21875 C 120.367188 76.492188 119.40625 77.652344 118.289062 78.773438 C 118.386719 81.097656 119.714844 82.902344 120.910156 84.816406 L 121.515625 85.808594 C 122.007812 86.609375 122.503906 87.410156 123 88.207031 C 127.035156 86.707031 130.617188 84.253906 133.558594 81.117188 C 134.695312 79.710938 135.222656 78.640625 135.722656 76.886719 C 135.949219 75.367188 136.035156 74.558594 135.722656 73.113281 C 134.5625 70.257812 132.886719 68.242188 130.511719 66.304688 C 129.007812 65.164062 127.480469 64.121094 125.828125 63.207031 Z M 114.519531 99.640625 L 113.160156 100.015625 L 111.75 100.410156 L 110.347656 100.796875 C 109.457031 101.042969 108.566406 101.296875 107.675781 101.550781 C 106.730469 101.820312 105.777344 102.070312 104.824219 102.300781 L 103.679688 102.828125 C 103.027344 103.816406 103.027344 103.816406 102.734375 105.1875 L 102.464844 106.164062 C 102.152344 107.3125 101.847656 108.457031 101.558594 109.609375 C 101.355469 110.390625 101.15625 111.167969 100.953125 111.949219 L 100.664062 113.074219 C 100.273438 114.539062 99.863281 115.996094 99.4375 117.453125 C 100.09375 117.679688 100.75 117.90625 101.410156 118.128906 L 102.519531 118.511719 C 106.222656 119.648438 110.203125 119.699219 114.046875 119.339844 C 115.671875 118.914062 116.425781 118.460938 117.816406 117.453125 C 119.410156 115.855469 120.03125 114.410156 120.644531 112.261719 C 121.070312 108.035156 120.414062 104.058594 119.230469 100 L 118.757812 99.054688 C 117.121094 99.054688 116.066406 99.214844 114.519531 99.640625 " fill-opacity="1" fill-rule="nonzero"/><path fill="#2082c4" d="M 125.828125 54.71875 C 130.585938 56.136719 134.851562 59.148438 138.445312 62.535156 C 140.886719 65.199219 142.792969 68.195312 143.734375 71.699219 C 144.039062 75.046875 144.066406 78.441406 142.808594 81.601562 C 141.90625 83.359375 140.792969 84.835938 139.496094 86.320312 L 138.582031 87.367188 C 135.796875 90.355469 132.640625 92.324219 129.125 94.339844 C 128.339844 94.808594 127.554688 95.28125 126.769531 95.753906 L 127.183594 97.582031 L 127.441406 98.777344 C 127.605469 99.527344 127.785156 100.273438 127.984375 101.015625 C 129.097656 105.527344 129.292969 110.761719 128.296875 115.308594 C 127.183594 118.519531 125.625 121.078125 123.148438 123.40625 C 120.742188 125.441406 118.054688 126.679688 114.988281 127.355469 C 106.625 128.140625 98.914062 126.578125 91.277344 123.199219 C 89.902344 122.5625 88.539062 121.90625 87.183594 121.226562 L 86.199219 120.730469 C 82.890625 119.058594 79.703125 117.328125 76.78125 115.015625 C 76.484375 114.886719 76.183594 114.753906 75.875 114.621094 C 73.914062 115.132812 72.296875 116.28125 70.601562 117.363281 C 68.046875 118.96875 65.460938 120.519531 62.679688 121.695312 L 61.734375 121.695312 C 61.261719 120.617188 60.792969 119.535156 60.320312 118.453125 C 60.121094 117.992188 60.121094 117.992188 59.914062 117.523438 C 58.90625 115.199219 58.90625 115.199219 58.90625 114.148438 C 63.84375 110.957031 63.84375 110.957031 66.484375 110.71875 C 67.90625 110.851562 69.285156 111.066406 70.691406 111.320312 C 73.9375 111.742188 76.875 111.816406 80.105469 111.316406 C 84.839844 110.601562 84.839844 110.601562 86.816406 111.125 C 88.800781 111.910156 90.589844 112.960938 92.367188 114.148438 L 92.558594 113.183594 L 92.808594 111.910156 L 93.058594 110.648438 L 93.308594 109.433594 L 93.414062 108.445312 L 93.78125 107.546875 C 94.914062 106.667969 94.914062 106.667969 96.375 105.777344 C 100.632812 103.035156 103.726562 100.199219 106.589844 95.996094 C 107.449219 94.808594 108.195312 93.855469 109.332031 92.925781 C 110.445312 92.503906 111.574219 92.140625 112.722656 91.832031 C 119.972656 89.707031 126.832031 87.039062 132.453125 81.808594 C 133.851562 80.304688 134.660156 78.875 135.253906 76.886719 C 135.539062 74.933594 135.515625 73.804688 134.816406 71.976562 C 132.949219 68.414062 130.082031 66.292969 126.769531 64.152344 L 125.683594 63.699219 L 124.886719 63.207031 C 124.359375 61.664062 124.34375 60.113281 124.414062 58.492188 C 124.757812 57.125 125.230469 56.003906 125.828125 54.71875 M 114.519531 99.640625 L 113.160156 100.015625 L 111.75 100.410156 L 110.347656 100.796875 C 109.457031 101.042969 108.566406 101.296875 107.675781 101.550781 C 106.730469 101.820312 105.777344 102.070312 104.824219 102.300781 L 103.679688 102.828125 C 103.027344 103.816406 103.027344 103.816406 102.734375 105.1875 L 102.464844 106.164062 C 102.152344 107.3125 101.847656 108.457031 101.558594 109.609375 C 101.355469 110.390625 101.15625 111.167969 100.953125 111.949219 L 100.664062 113.074219 C 100.273438 114.539062 99.863281 115.996094 99.4375 117.453125 C 100.09375 117.679688 100.75 117.90625 101.410156 118.128906 L 102.519531 118.511719 C 106.222656 119.648438 110.203125 119.699219 114.046875 119.339844 C 115.671875 118.914062 116.425781 118.460938 117.816406 117.453125 C 119.410156 115.855469 120.03125 114.410156 120.644531 112.261719 C 121.070312 108.035156 120.414062 104.058594 119.230469 100 L 118.757812 99.054688 C 117.121094 99.054688 116.066406 99.214844 114.519531 99.640625 " fill-opacity="1" fill-rule="nonzero"/><path fill="#2082c4" d="M 120.117188 24.632812 C 123.039062 26.242188 125.003906 28.3125 126.769531 31.132812 C 128.839844 34.964844 128.886719 39.011719 128.824219 43.265625 C 128.628906 47.710938 127.226562 51.972656 125.8125 56.164062 C 124.980469 58.632812 124.902344 60.335938 125.25 62.917969 C 125.539062 66.304688 124.710938 69.390625 123.28125 72.445312 C 122.292969 74.457031 121.453125 76.101562 119.796875 77.640625 L 118.757812 78.773438 C 118.714844 80.402344 119.332031 81.328125 120.101562 82.773438 C 120.445312 83.359375 120.792969 83.941406 121.144531 84.523438 C 121.78125 85.582031 122.398438 86.652344 123 87.734375 L 123 88.679688 C 122.019531 89.074219 121.039062 89.46875 120.054688 89.859375 L 118.398438 90.519531 C 116.875 91.039062 116.875 91.039062 114.988281 91.039062 C 113.859375 89.371094 112.910156 87.722656 112.160156 85.847656 C 112.070312 84.4375 112.222656 83.195312 112.421875 81.800781 C 113.273438 75.304688 112.75 68.800781 110.355469 62.679688 C 107.867188 56.828125 104.328125 52.109375 99.457031 47.996094 C 98.457031 47.136719 97.53125 46.226562 96.609375 45.285156 C 100.605469 43.796875 104.226562 43.421875 108.445312 44.105469 C 112.402344 44.988281 115.558594 46.597656 118.757812 49.058594 C 120.34375 45.355469 120.476562 41.730469 120.171875 37.738281 C 119.808594 36.09375 119.335938 34.816406 118.289062 33.492188 C 116.566406 32.230469 114.707031 31.574219 112.632812 31.132812 C 109.25 30.910156 106.191406 31.515625 102.902344 32.238281 C 101.320312 32.546875 101.320312 32.546875 99.4375 32.546875 C 98.949219 31.558594 98.46875 30.566406 97.992188 29.570312 L 97.183594 27.894531 L 96.609375 26.417969 L 97.082031 25 C 98.25 24.601562 99.4375 24.265625 100.644531 24 L 101.632812 23.757812 C 107.898438 22.273438 114.066406 22.070312 120.113281 24.632812 " fill-opacity="1" fill-rule="nonzero"/><path fill="#a5c713" d="M 315.128906 77.976562 C 316.710938 78.550781 318.117188 79.238281 319.515625 80.1875 L 319.988281 78.300781 C 321.304688 78.265625 322.621094 78.234375 323.933594 78.214844 L 325.070312 78.175781 C 326.046875 78.164062 327.023438 78.230469 328 78.300781 C 328.941406 79.71875 328.941406 79.71875 329.0625 80.84375 L 329.066406 82.191406 L 329.074219 83.722656 L 329.066406 85.378906 L 329.070312 87.074219 C 329.070312 88.257812 329.070312 89.445312 329.066406 90.628906 C 329.058594 92.445312 329.066406 94.261719 329.070312 96.078125 C 329.070312 97.226562 329.070312 98.378906 329.066406 99.527344 L 329.074219 101.179688 L 329.0625 102.710938 C 329.0625 103.15625 329.0625 103.601562 329.0625 104.058594 C 328.941406 105.1875 328.941406 105.1875 328 106.601562 C 326.414062 107.132812 325.164062 107.152344 323.492188 107.164062 L 321.84375 107.183594 L 320.460938 107.074219 L 319.515625 106.132812 L 319.515625 104.714844 L 318.640625 105.214844 L 317.484375 105.867188 L 316.34375 106.511719 C 314.128906 107.679688 312.175781 107.703125 309.71875 107.679688 C 307.078125 107.445312 304.898438 106.527344 302.65625 105.140625 C 300.289062 103.363281 298.902344 100.855469 297.722656 98.199219 C 296.808594 94.320312 296.726562 91.019531 297.835938 87.164062 C 298.839844 84.375 300.28125 82.335938 302.40625 80.277344 C 306.054688 77.265625 310.664062 76.582031 315.128906 77.976562 M 310.210938 86.585938 C 309.054688 87.324219 308.085938 88.105469 307.242188 89.191406 C 306.5 90.683594 306.535156 92.070312 306.628906 93.707031 C 306.765625 94.882812 306.765625 94.882812 307.324219 96.195312 C 308.480469 97.472656 309.410156 98 311.035156 98.585938 C 312.339844 98.796875 313.5 98.820312 314.804688 98.585938 C 316.410156 97.765625 317.386719 97.003906 318.515625 95.605469 C 319.207031 93.957031 319.234375 92.8125 319.046875 91.039062 C 318.480469 89.570312 317.914062 88.519531 316.867188 87.351562 C 314.765625 86.300781 312.5 86.117188 310.210938 86.585938 M 125.828125 54.71875 C 130.585938 56.136719 134.851562 59.148438 138.445312 62.535156 C 140.886719 65.199219 142.792969 68.195312 143.734375 71.699219 C 144.039062 75.046875 144.066406 78.441406 142.808594 81.601562 C 141.90625 83.359375 140.792969 84.835938 139.496094 86.320312 L 138.582031 87.367188 C 135.804688 90.34375 132.664062 92.363281 129.125 94.339844 L 127.953125 95 C 121.90625 98.199219 115.367188 100.023438 108.785156 101.746094 L 107.582031 102.082031 C 106.503906 102.359375 106.503906 102.359375 104.878906 102.582031 L 103.679688 103.300781 C 102.929688 105.003906 102.558594 106.761719 102.175781 108.578125 C 101.957031 109.546875 101.734375 110.519531 101.507812 111.488281 L 101.1875 112.875 C 100.757812 114.5 100.160156 115.9375 99.4375 117.453125 C 98.796875 117.246094 98.160156 117.039062 97.523438 116.832031 L 96.445312 116.484375 C 94.894531 115.929688 93.402344 115.28125 91.898438 114.621094 C 92.261719 112.195312 92.664062 109.753906 93.78125 107.546875 C 95.476562 105.929688 97.40625 104.917969 99.4375 103.773438 C 102.386719 101.570312 104.523438 99.03125 106.589844 95.996094 C 107.449219 94.808594 108.195312 93.855469 109.332031 92.925781 C 110.445312 92.503906 111.574219 92.140625 112.722656 91.832031 C 119.972656 89.707031 126.832031 87.039062 132.453125 81.808594 C 133.851562 80.304688 134.660156 78.875 135.253906 76.886719 C 135.539062 74.933594 135.515625 73.804688 134.816406 71.976562 C 132.949219 68.414062 130.082031 66.292969 126.769531 64.152344 L 125.683594 63.699219 L 124.886719 63.207031 C 124.359375 61.664062 124.34375 60.113281 124.414062 58.492188 C 124.757812 57.125 125.230469 56.003906 125.828125 54.71875 M 285.054688 77.625 C 287.539062 78.667969 289.484375 80.03125 291.242188 82.074219 C 292.539062 83.992188 293.648438 85.914062 294.070312 88.207031 C 294.136719 89.167969 294.171875 90.132812 294.1875 91.097656 L 294.222656 92.601562 L 294.070312 93.867188 C 292.65625 94.8125 292.65625 94.8125 291.75 94.925781 L 290.722656 94.917969 L 289.550781 94.917969 L 288.289062 94.902344 L 286.996094 94.898438 C 285.632812 94.894531 284.269531 94.882812 282.90625 94.871094 C 281.980469 94.863281 281.058594 94.859375 280.132812 94.855469 C 277.867188 94.847656 275.601562 94.832031 273.332031 94.8125 C 274.699219 97.019531 274.699219 97.019531 276.78125 98.523438 C 278.628906 99.089844 279.898438 99.261719 281.816406 99.054688 C 282.933594 98.621094 284.03125 98.152344 285.113281 97.640625 C 286.003906 97.28125 286.003906 97.28125 287 97.167969 C 288.199219 97.675781 288.199219 97.675781 289.445312 98.4375 L 290.703125 99.179688 C 291.710938 100 291.710938 100 292.148438 100.964844 L 292.183594 101.886719 C 290.78125 103.695312 289.152344 104.785156 287.105469 105.730469 C 283.8125 106.992188 280.644531 107.269531 277.148438 106.890625 C 274.113281 106.292969 271.265625 105.152344 268.769531 103.3125 C 266.992188 101.757812 265.78125 100.144531 264.859375 97.960938 C 263.785156 94.738281 263.519531 91.753906 264.128906 88.410156 C 264.871094 85.515625 266.089844 83.292969 268.148438 81.132812 C 270.042969 79.402344 272.113281 77.914062 274.566406 77.109375 C 278.074219 76.414062 281.648438 76.523438 285.054688 77.625 M 275.453125 85.289062 C 274.207031 86.289062 274.207031 86.289062 273.332031 87.734375 L 273.332031 89.152344 L 285.585938 89.152344 C 284.917969 86.40625 284.917969 86.40625 283.464844 85.199219 C 281.59375 84.332031 280.277344 84.164062 278.238281 84.246094 C 276.96875 84.394531 276.96875 84.394531 275.453125 85.289062 M 171.570312 77.890625 C 173.652344 78.78125 175.253906 79.867188 176.722656 81.605469 C 178.726562 85.058594 178.839844 88.734375 178.867188 92.621094 C 178.867188 93.46875 178.863281 94.320312 178.855469 95.167969 C 178.84375 96.472656 178.855469 97.777344 178.867188 99.082031 C 178.867188 99.914062 178.863281 100.746094 178.859375 101.578125 L 178.871094 102.753906 C 178.851562 103.847656 178.851562 103.847656 178.609375 105.660156 C 177.734375 106.609375 177.734375 106.609375 176.722656 107.074219 C 175.371094 107.261719 175.371094 107.261719 173.898438 107.25 L 172.425781 107.261719 C 171.070312 107.074219 171.070312 107.074219 170.058594 106.578125 L 169.183594 105.660156 C 169 104.472656 168.914062 103.28125 168.929688 102.078125 C 168.925781 101.730469 168.917969 101.378906 168.914062 101.019531 C 168.898438 99.902344 168.890625 98.789062 168.890625 97.671875 C 168.882812 96.554688 168.871094 95.441406 168.855469 94.324219 C 168.847656 93.632812 168.84375 92.9375 168.84375 92.246094 C 168.828125 90.890625 168.761719 89.753906 168.285156 88.476562 C 167.816406 87.675781 167.816406 87.675781 166.9375 87.3125 C 165.390625 86.949219 164.253906 86.746094 162.675781 87.027344 C 161.554688 87.695312 161.554688 87.695312 160.886719 88.964844 C 160.148438 90.765625 160.007812 92.328125 159.988281 94.246094 L 159.964844 95.28125 C 159.9375 96.363281 159.921875 97.445312 159.90625 98.523438 C 159.890625 99.261719 159.875 100 159.855469 100.738281 C 159.816406 102.535156 159.785156 104.332031 159.757812 106.132812 C 158.113281 107.015625 156.929688 107.226562 155.046875 107.25 L 153.574219 107.292969 C 152.21875 107.074219 152.21875 107.074219 151.207031 106.277344 C 150.332031 105.1875 150.332031 105.1875 150.101562 104.003906 L 150.105469 102.65625 L 150.097656 101.128906 L 150.117188 99.480469 L 150.117188 97.785156 C 150.121094 96.605469 150.128906 95.421875 150.140625 94.242188 C 150.15625 92.429688 150.160156 90.617188 150.15625 88.804688 C 150.164062 87.65625 150.167969 86.507812 150.175781 85.359375 L 150.179688 83.710938 L 150.195312 82.1875 L 150.207031 80.84375 C 150.332031 79.71875 150.332031 79.71875 151.277344 78.300781 C 152.667969 78.199219 153.953125 78.167969 155.339844 78.214844 L 156.484375 78.234375 C 157.417969 78.25 158.351562 78.273438 159.289062 78.300781 L 159.757812 80.1875 L 160.621094 79.6875 L 161.761719 79.039062 L 162.886719 78.390625 C 165.640625 77 168.660156 76.925781 171.570312 77.890625 M 185.679688 78.300781 C 186.933594 78.207031 188.191406 78.167969 189.449219 78.183594 L 190.5 78.171875 C 191.40625 78.175781 192.3125 78.234375 193.21875 78.300781 L 194.160156 79.246094 C 194.257812 80.394531 194.304688 81.492188 194.304688 82.644531 L 194.34375 84.722656 C 194.355469 85.816406 194.367188 86.90625 194.375 88 C 194.386719 89.054688 194.40625 90.109375 194.425781 91.164062 L 194.425781 92.140625 C 194.457031 93.757812 194.679688 94.921875 195.289062 96.429688 L 196.046875 97.640625 C 197.035156 98.113281 197.035156 98.113281 198.136719 98.113281 L 199.226562 98.199219 C 200.296875 98.152344 200.296875 98.152344 201.304688 97.789062 C 202.242188 97.21875 202.242188 97.21875 202.6875 96.175781 C 203.210938 94.507812 203.265625 92.941406 203.277344 91.207031 L 203.296875 90.179688 C 203.328125 88.730469 203.347656 87.285156 203.367188 85.835938 C 203.382812 84.777344 203.402344 83.71875 203.425781 82.660156 L 203.429688 81.664062 C 203.449219 80.855469 203.511719 80.050781 203.585938 79.246094 L 204.527344 78.300781 C 205.785156 78.195312 207.039062 78.148438 208.300781 78.15625 L 209.351562 78.132812 C 210.359375 78.128906 210.359375 78.128906 212.070312 78.300781 C 213.011719 79.71875 213.011719 79.71875 213.136719 80.839844 L 213.148438 82.1875 L 213.167969 83.710938 L 213.167969 85.359375 L 213.179688 87.054688 C 213.183594 88.238281 213.1875 89.417969 213.1875 90.601562 C 213.1875 92.414062 213.207031 94.226562 213.222656 96.035156 C 213.226562 97.183594 213.226562 98.332031 213.230469 99.480469 L 213.25 101.128906 L 213.242188 102.65625 L 213.246094 104.003906 C 213.011719 105.1875 213.011719 105.1875 212.152344 106.277344 L 211.125 107.074219 C 209.53125 107.292969 209.53125 107.292969 207.769531 107.25 L 205.996094 107.234375 C 205.511719 107.179688 205.027344 107.128906 204.527344 107.074219 L 203.585938 106.132812 L 203.585938 104.714844 L 202.8125 105.214844 L 201.789062 105.867188 L 200.777344 106.511719 C 199.085938 107.5 197.648438 107.648438 195.722656 107.695312 C 193.453125 107.664062 191.761719 107.445312 189.800781 106.285156 C 187.722656 104.707031 186.46875 103.078125 185.414062 100.691406 C 184.59375 98.453125 184.539062 96.386719 184.566406 94.019531 L 184.5625 92.742188 C 184.566406 91.855469 184.570312 90.972656 184.578125 90.089844 C 184.589844 88.730469 184.585938 87.375 184.582031 86.019531 C 184.585938 85.15625 184.589844 84.296875 184.59375 83.433594 L 184.59375 82.203125 C 184.605469 81.214844 184.664062 80.230469 184.734375 79.246094 Z M 80.195312 8.414062 C 84.738281 10.167969 88.136719 12.945312 91.277344 16.628906 C 97.136719 24.140625 100.714844 33.1875 102.734375 42.453125 L 102.734375 43.867188 C 101.679688 44.222656 100.617188 44.566406 99.554688 44.902344 L 97.765625 45.480469 C 96.136719 45.753906 96.136719 45.753906 95.066406 45.378906 C 93.777344 43.738281 93.398438 41.886719 92.867188 39.890625 C 92.625 39.027344 92.378906 38.167969 92.128906 37.308594 L 91.765625 36.050781 C 90.128906 30.578125 87.21875 24.246094 83.265625 20.03125 C 81.304688 18.328125 79.214844 16.828125 76.644531 16.269531 C 74.8125 16.179688 73.285156 16.492188 71.601562 17.21875 C 67.535156 19.546875 65.21875 23.164062 62.898438 27.09375 L 62.207031 28.304688 C 60.34375 28.007812 58.8125 27.421875 57.113281 26.625 L 55.71875 25.972656 L 54.667969 25.472656 C 56.777344 19.921875 60.515625 15.234375 65.085938 11.46875 C 69.675781 8.28125 74.683594 6.960938 80.195312 8.414062 M 239.375 77.625 C 241.476562 78.511719 243.164062 79.699219 244.886719 81.1875 L 245.527344 82.074219 C 245.625 83.359375 245.625 83.359375 245.527344 84.433594 C 243.398438 85.882812 241.3125 87.207031 238.929688 88.207031 C 237.660156 88.015625 237.070312 87.621094 236.039062 86.878906 C 235.179688 86.253906 235.179688 86.253906 234.089844 86.113281 C 232.238281 86.066406 231.027344 86.273438 229.300781 87 C 228.105469 88.191406 227.796875 88.679688 227.355469 90.242188 C 227.167969 91.394531 227.113281 92.269531 227.347656 93.414062 C 227.835938 94.6875 228.472656 95.660156 229.417969 96.636719 C 230.757812 97.328125 231.769531 97.550781 233.277344 97.640625 C 235.027344 97.304688 235.027344 97.304688 236.574219 96.699219 L 237.515625 95.753906 C 240.035156 95.753906 241.957031 97.015625 244.082031 98.222656 L 245.058594 99.054688 C 245.429688 100.332031 245.429688 100.332031 245.527344 101.414062 C 242.96875 103.960938 240.539062 105.625 237.046875 106.601562 C 233.675781 107.328125 230.441406 107.152344 227.148438 106.132812 C 224.167969 104.800781 221.851562 103.011719 219.796875 100.476562 C 218.402344 98.46875 217.542969 96.308594 217.253906 93.867188 C 216.992188 90.6875 217.367188 87.835938 218.667969 84.90625 C 220.167969 82.464844 221.964844 80.320312 224.390625 78.773438 C 228.988281 76.296875 234.40625 76.019531 239.375 77.625 " fill-opacity="1" fill-rule="nonzero"/><path fill="#2082c4" d="M 23.5625 99.054688 C 25.265625 100.632812 26.496094 102.550781 27.835938 104.4375 C 28.65625 105.636719 28.65625 105.636719 29.542969 106.332031 C 30.160156 107.074219 30.160156 107.074219 30.4375 108.539062 L 30.601562 110.257812 C 30.929688 113.027344 30.929688 113.027344 31.871094 115.625 C 33.023438 117.019531 33.828125 117.84375 35.480469 118.558594 C 40.710938 119.824219 46.269531 118.808594 51.367188 117.453125 C 51.84375 118.441406 52.3125 119.433594 52.78125 120.429688 L 53.578125 122.105469 C 54.195312 123.582031 54.195312 123.582031 54.195312 125 C 53.222656 125.304688 52.25 125.609375 51.28125 125.914062 L 49.640625 126.425781 C 44.90625 127.808594 39.648438 127.839844 34.769531 127.140625 C 31.601562 126.285156 28.921875 124.554688 26.507812 122.359375 C 24.273438 119.984375 23.121094 117.109375 22.34375 113.976562 C 21.542969 108.839844 22.277344 104.027344 23.5625 99.054688 M 228.09375 28.773438 C 228.976562 28.605469 228.976562 28.605469 229.976562 28.628906 L 230.976562 28.632812 C 231.414062 28.703125 231.414062 28.703125 231.863281 28.773438 L 232.804688 29.71875 C 232.898438 30.84375 232.898438 30.84375 232.863281 32.136719 L 232.835938 33.4375 L 232.804688 34.433594 L 233.886719 34.402344 L 235.308594 34.375 L 236.714844 34.34375 C 237.988281 34.433594 237.988281 34.433594 239.402344 35.378906 C 239.550781 37.03125 239.550781 37.03125 239.402344 38.679688 L 238.460938 39.625 C 237.128906 39.714844 237.128906 39.714844 235.574219 39.683594 L 234.007812 39.65625 L 232.804688 39.625 C 232.835938 42.015625 232.878906 44.410156 232.929688 46.800781 C 232.945312 47.613281 232.957031 48.429688 232.96875 49.242188 C 232.984375 50.414062 233.007812 51.582031 233.035156 52.75 L 233.042969 53.855469 C 233.058594 55.003906 233.058594 55.003906 233.277344 56.605469 C 233.859375 57.550781 233.859375 57.550781 234.691406 58.019531 C 235.742188 58.371094 235.742188 58.371094 236.871094 58.550781 C 237.558594 58.675781 238.246094 58.8125 238.929688 58.960938 L 239.402344 59.433594 C 239.492188 61.054688 239.492188 61.054688 239.402344 62.734375 L 238.460938 63.679688 C 235.902344 63.902344 233.796875 63.609375 231.382812 62.730469 C 230.449219 62.265625 230.449219 62.265625 229.300781 61.113281 L 228.5625 59.90625 L 228.003906 59.023438 C 227.039062 56.496094 227.09375 53.761719 227.105469 51.09375 C 227.105469 50.761719 227.105469 50.433594 227.105469 50.09375 C 227.109375 49.050781 227.113281 48.007812 227.121094 46.964844 C 227.121094 46.25 227.125 45.539062 227.125 44.828125 C 227.132812 43.09375 227.140625 41.359375 227.148438 39.625 L 225.324219 39.652344 C 223.496094 39.683594 223.496094 39.683594 222.4375 39.152344 C 222.296875 36.296875 222.296875 36.296875 222.4375 35.378906 L 223.851562 34.433594 C 224.949219 34.394531 226.050781 34.394531 227.148438 34.433594 L 227.117188 33.554688 L 227.089844 32.402344 L 227.058594 31.257812 C 227.148438 30.191406 227.148438 30.191406 228.09375 28.773438 M 180.496094 24.058594 C 183.199219 23.929688 183.199219 23.929688 184.265625 24.058594 L 185.207031 25 C 185.296875 26.183594 185.339844 27.371094 185.328125 28.558594 L 185.332031 29.667969 C 185.339844 30.882812 185.335938 32.097656 185.332031 33.316406 L 185.335938 35.84375 C 185.335938 37.609375 185.335938 39.375 185.328125 41.144531 C 185.324219 43.410156 185.328125 45.679688 185.332031 47.949219 C 185.335938 49.6875 185.335938 51.429688 185.332031 53.167969 C 185.332031 54.003906 185.332031 54.839844 185.335938 55.675781 C 185.339844 56.84375 185.335938 58.011719 185.328125 59.179688 L 185.335938 60.234375 C 185.328125 61.070312 185.269531 61.902344 185.207031 62.734375 L 184.265625 63.679688 C 181.285156 63.839844 181.285156 63.839844 180.023438 63.207031 C 180.011719 58.171875 180.003906 53.136719 180 48.101562 C 179.996094 45.765625 179.992188 43.429688 179.988281 41.089844 C 179.984375 38.835938 179.980469 36.582031 179.976562 34.328125 C 179.976562 33.464844 179.976562 32.605469 179.972656 31.742188 C 179.96875 30.539062 179.96875 29.335938 179.96875 28.132812 L 179.964844 27.042969 C 179.964844 26.207031 179.992188 25.367188 180.023438 24.53125 Z M 260.609375 34.433594 L 261.082031 34.90625 C 261.125 35.691406 261.140625 36.480469 261.140625 37.265625 L 261.144531 38.5625 L 261.082031 39.625 L 260.609375 40.09375 C 259.953125 40.15625 259.292969 40.203125 258.636719 40.242188 C 257.0625 40.40625 256.234375 40.632812 254.777344 41.363281 C 253.375 42.597656 252.789062 43.542969 252.125 45.285156 C 251.691406 47.425781 251.566406 49.507812 251.507812 51.691406 L 251.476562 52.695312 C 251.445312 53.742188 251.417969 54.789062 251.390625 55.835938 L 251.328125 57.980469 C 251.277344 59.722656 251.230469 61.464844 251.183594 63.207031 C 249.765625 63.917969 248.503906 63.761719 246.941406 63.679688 L 246 62.734375 C 245.878906 61.609375 245.878906 61.609375 245.878906 60.175781 L 245.867188 58.554688 L 245.875 56.796875 L 245.871094 55 C 245.871094 53.742188 245.871094 52.484375 245.878906 51.230469 C 245.882812 49.617188 245.878906 48.007812 245.875 46.394531 C 245.871094 44.859375 245.871094 43.324219 245.875 41.789062 L 245.867188 40.03125 L 245.878906 38.410156 C 245.878906 37.9375 245.878906 37.464844 245.878906 36.976562 L 246 35.851562 L 246.941406 34.90625 C 249.921875 34.746094 249.921875 34.746094 251.183594 35.378906 C 251.375 36.472656 251.535156 37.574219 251.65625 38.679688 L 252.398438 37.992188 C 255.074219 35.5625 256.859375 34.179688 260.609375 34.433594 " fill-opacity="1" fill-rule="nonzero"/><path fill="#2082c4" d="M 35.816406 58.960938 L 38.171875 64.152344 C 37.183594 64.796875 36.191406 65.433594 35.199219 66.066406 L 34.347656 66.625 C 33.601562 67.09375 32.824219 67.515625 32.046875 67.925781 L 30.632812 67.453125 C 29.875 66.167969 29.875 66.167969 29.128906 64.59375 L 28.375 63.015625 L 27.804688 61.792969 C 28.875 61.316406 29.945312 60.847656 31.015625 60.378906 C 31.46875 60.175781 31.46875 60.175781 31.933594 59.96875 C 33.308594 59.371094 34.300781 58.960938 35.816406 58.960938 " fill-opacity="1" fill-rule="nonzero"/></svg>