<svg xmlns="http://www.w3.org/2000/svg" xmlns:xlink="http://www.w3.org/1999/xlink" width="783" zoomAndPan="magnify" viewBox="0 0 587.25 238.499993" height="318" preserveAspectRatio="xMidYMid meet" version="1.0"><path fill="#a5c713" d="M 127.597656 13.347656 C 134.816406 16.132812 140.214844 20.535156 145.203125 26.382812 C 148.488281 30.550781 151.140625 35.007812 153.667969 39.667969 L 156.03125 39.039062 C 166.25 36.414062 176.003906 34.71875 186.457031 37.371094 C 190.953125 38.875 194.570312 40.832031 197.871094 44.265625 C 200.890625 47.957031 203.039062 51.601562 204.226562 56.246094 C 205.617188 65.070312 204.726562 73.722656 202.222656 82.234375 C 201.46875 84.527344 201.46875 84.527344 201.566406 86.816406 L 203.898438 88.027344 C 212.339844 92.519531 219.429688 97.191406 224.816406 105.339844 C 226.972656 108.863281 228.363281 112.113281 228.738281 116.253906 C 228.753906 121.515625 228.703125 126.226562 226.265625 130.976562 C 224.945312 133.148438 223.449219 135.050781 221.777344 136.960938 L 220.328125 138.625 C 215.90625 143.363281 210.890625 146.492188 205.308594 149.6875 C 204.0625 150.429688 202.8125 151.179688 201.566406 151.929688 L 202.222656 154.832031 L 202.632812 156.726562 C 202.898438 157.914062 203.183594 159.101562 203.496094 160.28125 C 205.261719 167.441406 205.574219 175.746094 203.996094 182.960938 C 202.222656 188.050781 199.75 192.113281 195.8125 195.808594 C 191.992188 199.035156 187.730469 201.003906 182.855469 202.078125 C 172.34375 203.050781 162.910156 201.53125 152.921875 198.335938 L 152.359375 200.289062 C 149.820312 207.167969 144.402344 213.40625 139.160156 218.421875 C 134.691406 222.113281 129.457031 224.964844 123.730469 226.027344 C 118.664062 226.550781 114.21875 225.691406 109.511719 223.78125 C 102.082031 220.214844 96.824219 214.945312 92.191406 208.222656 C 87.75 201.617188 87.75 201.617188 87.058594 198.335938 L 84.898438 198.960938 L 82.054688 199.785156 L 79.238281 200.601562 C 71.59375 202.695312 63.3125 202.855469 55.460938 201.730469 C 50.425781 200.378906 46.171875 197.632812 42.335938 194.148438 C 38.792969 190.378906 36.960938 185.816406 35.722656 180.839844 C 34.707031 174.320312 35.191406 168.105469 36.726562 161.753906 C 37.28125 159.167969 37.730469 157.035156 37.433594 154.40625 C 36.742188 152.460938 36.035156 151.230469 34.667969 149.6875 C 32.730469 148.234375 30.738281 147.011719 28.644531 145.800781 C 23.019531 142.351562 17.792969 137.457031 14.460938 131.722656 C 12.023438 126.804688 10.964844 122.1875 11.179688 116.695312 C 11.8125 111.867188 13.714844 107.878906 16.519531 103.9375 C 17.3125 102.957031 18.125 101.992188 18.949219 101.039062 L 20.203125 99.574219 C 25.535156 93.792969 32.464844 90.066406 39.160156 86.070312 L 38.53125 83.933594 L 37.707031 81.109375 L 36.894531 78.320312 C 35.050781 71.414062 34.609375 63.972656 35.789062 56.894531 C 37.152344 51.929688 39.398438 47.863281 42.851562 44.058594 C 46.90625 40.136719 50.941406 38.105469 56.371094 36.671875 C 66.339844 34.609375 76.699219 36.765625 86.308594 39.667969 C 86.71875 38.996094 87.125 38.328125 87.546875 37.636719 C 92.605469 29.472656 98.386719 21.007812 106.902344 16.136719 C 113.628906 12.675781 120.074219 11.363281 127.597656 13.347656 M 109.320312 29.824219 C 104.871094 33.972656 101.683594 38.691406 99.03125 44.15625 L 99.03125 45.652344 L 101.578125 46.96875 C 102.710938 47.558594 103.84375 48.148438 104.972656 48.742188 L 106.742188 49.664062 C 110.402344 51.601562 113.828125 53.652344 117.101562 56.207031 L 118.492188 56.878906 C 121.367188 56.535156 123.449219 55.601562 125.933594 54.148438 L 128.003906 52.945312 L 130.140625 51.6875 C 131.542969 50.871094 132.949219 50.054688 134.351562 49.234375 L 136.226562 48.132812 C 137.777344 47.25 139.339844 46.433594 140.945312 45.652344 C 140.320312 41.042969 137.679688 38.066406 134.957031 34.429688 L 133.226562 31.996094 C 130.40625 29.109375 127.4375 27.0625 123.730469 25.445312 C 118.066406 24.214844 113.648438 26.277344 109.320312 29.824219 M 54.128906 50.894531 C 51.742188 52.753906 50.1875 54.796875 49.035156 57.59375 C 46.917969 64.953125 48.722656 72.070312 50.386719 79.332031 L 51.132812 81.578125 C 56.542969 80.40625 61.90625 79.09375 67.273438 77.742188 L 69.773438 77.113281 C 71.792969 76.609375 73.8125 76.101562 75.832031 75.589844 L 76.21875 74.039062 L 81.820312 51.640625 C 79.714844 51.132812 77.613281 50.636719 75.503906 50.144531 L 73.726562 49.710938 C 67.019531 48.167969 60.476562 47.851562 54.128906 50.894531 M 158.90625 51.640625 C 159.386719 55.777344 160.355469 59.59375 161.574219 63.570312 L 162.105469 65.335938 C 162.53125 66.761719 162.964844 68.183594 163.398438 69.605469 L 165.539062 69.800781 C 173.367188 70.65625 180.21875 72.324219 186.785156 76.949219 L 188.84375 78.585938 C 190.585938 77.082031 190.585938 77.082031 191.183594 74.28125 C 192.257812 68.90625 192.660156 63.164062 191.324219 57.808594 C 190.1875 54.941406 189.09375 53.355469 186.738281 51.3125 C 182.675781 49.324219 178.9375 48.355469 174.429688 48.449219 C 169.230469 48.953125 163.859375 49.992188 158.90625 51.640625 M 93.792969 56.878906 L 93.054688 59.152344 L 92.0625 62.167969 L 91.578125 63.65625 C 91.085938 65.144531 90.578125 66.628906 90.050781 68.105469 L 89.546875 69.546875 C 88.699219 71.75 87.894531 73.261719 86.1875 74.90625 L 84.34375 76.199219 C 80.785156 78.871094 77.921875 81.8125 75.015625 85.171875 C 71.78125 88.894531 71.78125 88.894531 69.863281 89.625 L 68.203125 90.023438 L 66.390625 90.480469 C 65.132812 90.785156 63.875 91.085938 62.613281 91.386719 L 60.8125 91.847656 L 59.15625 92.242188 L 57.871094 92.804688 L 57.121094 95.050781 C 57.851562 96.800781 57.851562 96.800781 58.945312 98.558594 L 60.019531 100.390625 L 60.863281 101.785156 L 63.714844 101.039062 C 71.503906 99.511719 80.148438 99.308594 87.804688 101.507812 C 92.621094 103.234375 98.121094 105.359375 101.789062 109.035156 L 102.773438 110.019531 L 104.273438 110.019531 L 104.890625 111.375 C 105.746094 112.972656 106.617188 114.007812 107.875 115.304688 C 111.699219 119.644531 113.988281 125.433594 115.5 130.976562 C 116.96875 138.777344 116.203125 145.808594 114 153.429688 C 111.449219 160.28125 107.484375 165.789062 102.027344 170.640625 C 98.933594 172.890625 95.652344 174.796875 92.296875 176.628906 L 93.792969 181.121094 C 96.429688 180.347656 98.355469 179.574219 100.625 177.988281 C 102.394531 176.9375 103.433594 176.632812 105.511719 176.578125 C 107.855469 176.78125 110.175781 177.0625 112.503906 177.378906 C 117.691406 178.027344 122.402344 178.164062 127.570312 177.414062 C 135.421875 176.28125 135.421875 176.28125 139.113281 177.527344 C 141.320312 178.78125 141.320312 178.78125 143.167969 180.085938 L 144.6875 181.121094 L 146.933594 181.121094 C 147.3125 179.9375 147.683594 178.75 148.054688 177.566406 L 148.6875 175.566406 C 149.300781 173.484375 149.300781 173.484375 149.179688 170.640625 L 150.753906 170.105469 C 153.324219 168.964844 155.441406 167.445312 157.644531 165.730469 L 158.941406 164.726562 C 163.578125 161.039062 167.605469 157.136719 170.179688 151.746094 C 171.011719 150.28125 171.011719 150.28125 172.378906 148.9375 C 176.039062 147.320312 179.738281 146.207031 183.605469 145.195312 L 182.597656 143.546875 C 179.195312 137.5 179.195312 137.5 178.984375 134.09375 C 179.140625 132.644531 179.320312 131.203125 179.527344 129.761719 C 180.894531 119.472656 180.042969 109.144531 176.25 99.453125 C 171.921875 89.292969 165.410156 80.898438 156.664062 74.09375 C 155.59375 73.582031 154.515625 73.082031 153.433594 72.597656 C 151.992188 71.792969 151.992188 71.792969 150.675781 70.351562 C 148.882812 66.300781 147.917969 61.933594 146.933594 57.628906 L 144.6875 57.628906 C 143.539062 58.339844 142.394531 59.0625 141.257812 59.796875 C 138.222656 61.703125 135.277344 63.417969 131.664062 63.816406 C 128.476562 63.828125 125.34375 63.503906 122.179688 63.167969 C 119.261719 62.863281 116.679688 63.003906 113.785156 63.414062 C 110.660156 63.847656 107.859375 64.117188 104.851562 62.992188 C 101.226562 61.246094 97.898438 59.09375 94.542969 56.878906 Z M 41.308594 99.539062 C 35.457031 103.003906 30.4375 107.085938 26.015625 112.265625 C 24.835938 114.722656 24.210938 116.710938 24.027344 119.425781 C 24.28125 122.277344 25.300781 124.464844 26.675781 126.953125 C 28.679688 129.789062 31.15625 131.898438 33.917969 133.96875 C 35.554688 132.5625 35.554688 132.5625 36.03125 130.488281 L 36.679688 128.027344 C 38.933594 120.496094 42.835938 114.917969 48.511719 109.542969 L 49.636719 108.523438 C 48.707031 106.136719 47.710938 103.835938 46.550781 101.554688 L 45.75 99.972656 L 45.144531 98.792969 C 42.945312 98.632812 42.945312 98.632812 41.308594 99.539062 M 198.574219 100.289062 L 198.542969 101.773438 C 198.203125 108.277344 196.441406 113.859375 192.890625 119.347656 C 191.398438 121.371094 189.871094 123.210938 188.097656 124.988281 C 188.25 128.675781 190.359375 131.539062 192.261719 134.578125 L 193.222656 136.148438 C 194.003906 137.421875 194.792969 138.691406 195.582031 139.957031 C 201.988281 137.578125 207.675781 133.683594 212.351562 128.707031 C 214.15625 126.476562 214.992188 124.777344 215.789062 121.996094 C 216.144531 119.585938 216.28125 118.300781 215.789062 116.007812 C 213.945312 111.476562 211.28125 108.277344 207.507812 105.203125 C 205.121094 103.394531 202.695312 101.738281 200.070312 100.289062 Z M 45.894531 144.445312 L 45.144531 145.195312 C 45.214844 149.035156 45.945312 151.632812 47.859375 154.972656 C 51.277344 160.265625 55.046875 163.964844 60.667969 166.851562 C 65.460938 169.113281 68.988281 170.179688 74.335938 169.894531 L 75.082031 166.152344 C 72.863281 164.671875 71.554688 164.285156 69.003906 163.71875 C 64.042969 162.410156 60.332031 160.207031 56.585938 156.726562 C 53.8125 153.734375 52.210938 150.480469 50.664062 146.722656 L 49.636719 145.195312 C 47.75 144.484375 47.75 144.484375 45.894531 144.445312 M 182.113281 158.101562 L 179.953125 158.695312 L 177.710938 159.320312 L 175.488281 159.933594 C 174.070312 160.324219 172.65625 160.722656 171.246094 161.132812 C 169.742188 161.554688 168.230469 161.949219 166.714844 162.320312 L 164.894531 163.15625 C 163.863281 164.726562 163.863281 164.726562 163.398438 166.898438 L 162.964844 168.453125 C 162.46875 170.269531 161.988281 172.089844 161.527344 173.917969 C 161.207031 175.152344 160.886719 176.390625 160.566406 177.628906 L 160.105469 179.414062 C 159.488281 181.738281 158.835938 184.054688 158.160156 186.359375 C 159.203125 186.71875 160.246094 187.078125 161.292969 187.433594 L 163.054688 188.039062 C 168.933594 189.84375 175.257812 189.929688 181.359375 189.351562 C 183.941406 188.679688 185.136719 187.964844 187.347656 186.359375 C 189.878906 183.828125 190.867188 181.535156 191.839844 178.125 C 192.515625 171.414062 191.472656 165.105469 189.59375 158.667969 L 188.84375 157.171875 C 186.242188 157.171875 184.570312 157.421875 182.113281 158.101562 M 48.140625 170.640625 C 47.882812 175.339844 48.46875 179.050781 50.386719 183.367188 C 51.589844 185.558594 51.589844 185.558594 53.378906 187.109375 C 57.207031 189.074219 60.375 189.71875 64.699219 189.632812 L 66.363281 189.617188 C 71.390625 189.492188 76.320312 188.832031 81.070312 187.109375 L 81.820312 185.609375 C 81.121094 183.84375 80.371094 182.097656 79.574219 180.371094 L 77.105469 180.148438 C 67.789062 179.234375 59.90625 177.515625 51.925781 172.339844 C 50.335938 171.277344 50.335938 171.277344 48.140625 170.640625 M 119.242188 181.121094 C 117.644531 182.101562 116.070312 183.117188 114.515625 184.160156 C 109.503906 187.457031 104.363281 190.339844 99.03125 193.09375 C 101.253906 199.105469 104.890625 204.863281 109.605469 209.230469 C 112.132812 211.171875 114.648438 212.511719 117.742188 213.304688 C 121.269531 213.539062 123.925781 212.796875 127.144531 211.386719 C 132.96875 207.605469 136.621094 202.484375 140.082031 196.566406 L 140.945312 194.59375 L 140.195312 192.347656 C 139.035156 191.492188 139.035156 191.492188 137.578125 190.8125 L 135.949219 189.980469 L 134.210938 189.117188 C 129.917969 186.929688 125.824219 184.691406 121.910156 181.867188 L 120.738281 181.121094 Z M 119.242188 181.121094 " fill-opacity="1" fill-rule="nonzero"/><path fill="#2082c4" d="M 127.597656 13.347656 C 134.816406 16.132812 140.214844 20.535156 145.203125 26.382812 C 148.488281 30.550781 151.140625 35.007812 153.667969 39.667969 L 156.03125 39.039062 C 166.25 36.414062 176.003906 34.71875 186.457031 37.371094 C 190.953125 38.875 194.570312 40.832031 197.871094 44.265625 C 200.890625 47.957031 203.039062 51.601562 204.226562 56.246094 C 205.617188 65.070312 204.726562 73.722656 202.222656 82.234375 C 201.46875 84.527344 201.46875 84.527344 201.566406 86.816406 L 203.898438 88.027344 C 212.339844 92.519531 219.429688 97.191406 224.816406 105.339844 C 226.972656 108.863281 228.363281 112.113281 228.738281 116.253906 C 228.753906 121.515625 228.703125 126.226562 226.265625 130.976562 C 224.945312 133.148438 223.449219 135.050781 221.777344 136.960938 L 220.328125 138.625 C 215.90625 143.363281 210.890625 146.492188 205.308594 149.6875 C 204.0625 150.429688 202.8125 151.179688 201.566406 151.929688 L 202.222656 154.832031 L 202.632812 156.726562 C 202.898438 157.914062 203.183594 159.101562 203.496094 160.28125 C 205.261719 167.441406 205.574219 175.746094 203.996094 182.960938 C 202.222656 188.050781 199.75 192.113281 195.8125 195.808594 C 191.992188 199.035156 187.730469 201 182.855469 202.078125 C 169.574219 203.316406 157.332031 200.84375 145.203125 195.480469 C 143.019531 194.46875 140.851562 193.425781 138.699219 192.347656 L 137.132812 191.566406 C 131.878906 188.90625 126.820312 186.164062 122.183594 182.492188 C 121.707031 182.289062 121.226562 182.082031 120.738281 181.867188 C 117.625 182.679688 115.058594 184.503906 112.363281 186.21875 C 108.308594 188.765625 104.203125 191.230469 99.78125 193.09375 L 98.285156 193.09375 C 97.53125 191.382812 96.785156 189.667969 96.039062 187.949219 L 95.390625 186.472656 C 93.792969 182.785156 93.792969 182.785156 93.792969 181.121094 C 101.628906 176.050781 101.628906 176.050781 105.828125 175.675781 C 108.082031 175.886719 110.277344 176.226562 112.503906 176.628906 C 117.660156 177.300781 122.328125 177.417969 127.457031 176.628906 C 134.980469 175.488281 134.980469 175.488281 138.113281 176.320312 C 141.269531 177.566406 144.113281 179.234375 146.933594 181.121094 L 147.234375 179.589844 L 147.632812 177.566406 L 148.027344 175.566406 L 148.429688 173.636719 L 148.597656 172.070312 L 149.179688 170.640625 C 150.980469 169.25 150.980469 169.25 153.292969 167.835938 C 160.0625 163.480469 164.972656 158.984375 169.515625 152.316406 C 170.871094 150.449219 172.105469 148.921875 173.875 147.441406 C 175.96875 146.65625 175.96875 146.65625 178.179688 146.132812 L 180.414062 145.582031 L 182.109375 145.195312 L 182.109375 142.949219 C 181.492188 141.953125 180.855469 140.96875 180.191406 140.003906 C 179.027344 137.964844 178.382812 136.605469 178.285156 134.25 C 178.441406 132.777344 178.613281 131.308594 178.804688 129.839844 C 180.113281 118.847656 179.1875 108.105469 174.828125 97.867188 C 170.648438 88.738281 164.6875 80.957031 156.664062 74.84375 L 154.875 73.925781 C 152.832031 72.878906 151.496094 72.046875 149.925781 70.351562 C 148.078125 66.320312 147.140625 61.941406 146.183594 57.628906 L 143.859375 58.914062 L 140.804688 60.574219 L 139.277344 61.421875 C 136.609375 62.867188 134.28125 64.101562 131.214844 64.363281 C 129.253906 64.28125 127.320312 64.160156 125.367188 63.992188 C 122 63.71875 118.773438 63.503906 115.417969 63.96875 C 108.121094 64.949219 108.121094 64.949219 105.035156 63.828125 C 102.4375 62.558594 100.023438 61.03125 97.582031 59.492188 C 90.589844 55.078125 82.730469 52.398438 74.707031 50.566406 L 73.082031 50.195312 C 67.972656 49.136719 62.75 48.777344 57.683594 50.238281 C 55.300781 51.035156 53.597656 51.800781 51.882812 53.652344 C 49.648438 57.351562 49.027344 60.519531 48.65625 64.785156 C 48.742188 68.851562 49.777344 72.839844 50.640625 76.796875 C 51.132812 79.332031 51.132812 79.332031 51.132812 82.328125 C 49.558594 82.957031 47.984375 83.578125 46.410156 84.199219 L 43.75 85.25 C 41.402344 86.070312 41.402344 86.070312 39.160156 86.070312 C 38.671875 84.417969 38.1875 82.765625 37.707031 81.109375 L 36.894531 78.320312 C 35.050781 71.414062 34.609375 63.972656 35.789062 56.894531 C 37.152344 51.929688 39.398438 47.863281 42.851562 44.058594 C 46.90625 40.136719 50.941406 38.105469 56.371094 36.671875 C 66.339844 34.609375 76.699219 36.765625 86.308594 39.667969 C 86.71875 38.996094 87.125 38.328125 87.546875 37.636719 C 92.605469 29.472656 98.386719 21.007812 106.902344 16.136719 C 113.628906 12.675781 120.074219 11.363281 127.597656 13.347656 M 109.320312 29.824219 C 104.871094 33.972656 101.683594 38.691406 99.03125 44.15625 L 99.03125 45.652344 L 101.578125 46.96875 C 102.710938 47.558594 103.84375 48.148438 104.972656 48.742188 L 106.742188 49.664062 C 110.402344 51.601562 113.828125 53.652344 117.101562 56.207031 L 118.492188 56.878906 C 121.367188 56.535156 123.449219 55.601562 125.933594 54.148438 L 128.003906 52.945312 L 130.140625 51.6875 C 131.542969 50.871094 132.949219 50.054688 134.351562 49.234375 L 136.226562 48.132812 C 137.777344 47.25 139.339844 46.433594 140.945312 45.652344 C 140.320312 41.042969 137.679688 38.066406 134.957031 34.429688 L 133.226562 31.996094 C 130.40625 29.109375 127.4375 27.0625 123.730469 25.445312 C 118.066406 24.214844 113.648438 26.277344 109.320312 29.824219 M 158.90625 51.640625 C 159.386719 55.777344 160.355469 59.59375 161.574219 63.570312 L 162.105469 65.335938 C 162.53125 66.761719 162.964844 68.183594 163.398438 69.605469 L 165.539062 69.800781 C 173.367188 70.65625 180.21875 72.324219 186.785156 76.949219 L 188.84375 78.585938 C 190.585938 77.082031 190.585938 77.082031 191.183594 74.28125 C 192.257812 68.90625 192.660156 63.164062 191.324219 57.808594 C 190.1875 54.941406 189.09375 53.355469 186.738281 51.3125 C 182.675781 49.324219 178.9375 48.355469 174.429688 48.449219 C 169.230469 48.953125 163.859375 49.992188 158.90625 51.640625 M 198.574219 100.289062 L 198.542969 101.773438 C 198.203125 108.277344 196.441406 113.859375 192.890625 119.347656 C 191.398438 121.371094 189.871094 123.210938 188.097656 124.988281 C 188.25 128.675781 190.359375 131.539062 192.261719 134.578125 L 193.222656 136.148438 C 194.003906 137.421875 194.792969 138.691406 195.582031 139.957031 C 201.988281 137.578125 207.675781 133.683594 212.351562 128.707031 C 214.15625 126.476562 214.992188 124.777344 215.789062 121.996094 C 216.144531 119.585938 216.28125 118.300781 215.789062 116.007812 C 213.945312 111.476562 211.28125 108.277344 207.507812 105.203125 C 205.121094 103.394531 202.695312 101.738281 200.070312 100.289062 Z M 182.113281 158.101562 L 179.953125 158.695312 L 177.710938 159.320312 L 175.488281 159.933594 C 174.070312 160.324219 172.65625 160.722656 171.246094 161.132812 C 169.742188 161.554688 168.230469 161.949219 166.714844 162.320312 L 164.894531 163.15625 C 163.863281 164.726562 163.863281 164.726562 163.398438 166.898438 L 162.964844 168.453125 C 162.46875 170.269531 161.988281 172.089844 161.527344 173.917969 C 161.207031 175.152344 160.886719 176.390625 160.566406 177.628906 L 160.105469 179.414062 C 159.488281 181.738281 158.835938 184.054688 158.160156 186.359375 C 159.203125 186.71875 160.246094 187.078125 161.292969 187.433594 L 163.054688 188.039062 C 168.933594 189.84375 175.257812 189.929688 181.359375 189.351562 C 183.941406 188.679688 185.136719 187.964844 187.347656 186.359375 C 189.878906 183.828125 190.867188 181.535156 191.839844 178.125 C 192.515625 171.414062 191.472656 165.105469 189.59375 158.667969 L 188.84375 157.171875 C 186.242188 157.171875 184.570312 157.421875 182.113281 158.101562 " fill-opacity="1" fill-rule="nonzero"/><path fill="#2082c4" d="M 200.070312 86.816406 C 207.625 89.070312 214.40625 93.851562 220.109375 99.21875 C 223.984375 103.449219 227.015625 108.199219 228.511719 113.761719 C 228.992188 119.078125 229.035156 124.460938 227.039062 129.472656 C 225.605469 132.265625 223.839844 134.605469 221.777344 136.960938 L 220.328125 138.625 C 215.90625 143.363281 210.890625 146.492188 205.308594 149.6875 C 204.0625 150.429688 202.8125 151.179688 201.566406 151.929688 L 202.222656 154.832031 L 202.632812 156.726562 C 202.898438 157.914062 203.179688 159.101562 203.496094 160.28125 C 205.261719 167.441406 205.574219 175.746094 203.996094 182.960938 C 202.222656 188.050781 199.75 192.113281 195.8125 195.808594 C 191.992188 199.035156 187.730469 201 182.855469 202.078125 C 169.574219 203.316406 157.332031 200.84375 145.203125 195.480469 C 143.019531 194.46875 140.851562 193.425781 138.699219 192.347656 L 137.132812 191.566406 C 131.878906 188.90625 126.820312 186.164062 122.183594 182.492188 C 121.707031 182.289062 121.226562 182.082031 120.738281 181.867188 C 117.625 182.679688 115.058594 184.503906 112.363281 186.21875 C 108.308594 188.765625 104.203125 191.230469 99.78125 193.09375 L 98.285156 193.09375 C 97.53125 191.382812 96.785156 189.667969 96.039062 187.949219 C 95.71875 187.21875 95.71875 187.21875 95.390625 186.472656 C 93.792969 182.785156 93.792969 182.785156 93.792969 181.121094 C 101.628906 176.050781 101.628906 176.050781 105.828125 175.675781 C 108.082031 175.886719 110.277344 176.226562 112.503906 176.628906 C 117.660156 177.300781 122.328125 177.417969 127.457031 176.628906 C 134.980469 175.488281 134.980469 175.488281 138.113281 176.320312 C 141.269531 177.566406 144.113281 179.234375 146.933594 181.121094 L 147.234375 179.589844 L 147.632812 177.566406 L 148.027344 175.566406 L 148.429688 173.636719 L 148.597656 172.070312 L 149.179688 170.640625 C 150.980469 169.25 150.980469 169.25 153.292969 167.835938 C 160.0625 163.480469 164.972656 158.984375 169.515625 152.316406 C 170.886719 150.429688 172.070312 148.917969 173.875 147.441406 C 175.640625 146.773438 177.433594 146.199219 179.253906 145.710938 C 190.773438 142.335938 201.667969 138.105469 210.597656 129.804688 C 212.8125 127.417969 214.097656 125.148438 215.039062 121.996094 C 215.496094 118.894531 215.460938 117.101562 214.347656 114.199219 C 211.378906 108.546875 206.828125 105.183594 201.566406 101.785156 L 199.839844 101.066406 L 198.574219 100.289062 C 197.742188 97.839844 197.714844 95.378906 197.824219 92.804688 C 198.375 90.636719 199.125 88.859375 200.070312 86.816406 M 182.113281 158.101562 L 179.953125 158.695312 L 177.710938 159.320312 L 175.488281 159.933594 C 174.070312 160.324219 172.65625 160.722656 171.246094 161.132812 C 169.742188 161.554688 168.230469 161.949219 166.714844 162.320312 L 164.894531 163.15625 C 163.863281 164.726562 163.863281 164.726562 163.398438 166.898438 L 162.964844 168.453125 C 162.46875 170.269531 161.988281 172.089844 161.527344 173.917969 C 161.207031 175.152344 160.886719 176.390625 160.566406 177.628906 L 160.105469 179.414062 C 159.488281 181.738281 158.835938 184.054688 158.160156 186.359375 C 159.203125 186.71875 160.246094 187.078125 161.292969 187.433594 L 163.054688 188.039062 C 168.933594 189.84375 175.257812 189.929688 181.359375 189.351562 C 183.941406 188.679688 185.136719 187.964844 187.347656 186.359375 C 189.878906 183.828125 190.867188 181.535156 191.839844 178.125 C 192.515625 171.414062 191.472656 165.105469 189.59375 158.667969 L 188.84375 157.171875 C 186.242188 157.171875 184.570312 157.421875 182.113281 158.101562 " fill-opacity="1" fill-rule="nonzero"/><path fill="#2082c4" d="M 191 39.082031 C 195.644531 41.632812 198.765625 44.921875 201.566406 49.394531 C 204.855469 55.472656 204.929688 61.894531 204.828125 68.648438 C 204.519531 75.703125 202.292969 82.460938 200.046875 89.109375 C 198.726562 93.03125 198.601562 95.734375 199.15625 99.828125 C 199.613281 105.203125 198.300781 110.097656 196.027344 114.949219 C 194.460938 118.140625 193.121094 120.75 190.496094 123.191406 L 188.84375 124.988281 C 188.773438 127.574219 189.757812 129.039062 190.976562 131.335938 C 191.523438 132.261719 192.074219 133.1875 192.632812 134.109375 C 193.644531 135.792969 194.625 137.492188 195.582031 139.207031 L 195.582031 140.703125 C 194.023438 141.335938 192.464844 141.957031 190.902344 142.574219 L 188.269531 143.628906 C 185.851562 144.445312 185.851562 144.445312 182.855469 144.445312 C 181.0625 141.804688 179.554688 139.183594 178.367188 136.214844 C 178.222656 133.976562 178.464844 132.007812 178.777344 129.789062 C 180.136719 119.484375 179.300781 109.160156 175.5 99.453125 C 171.546875 90.164062 165.925781 82.679688 158.191406 76.15625 C 156.601562 74.789062 155.132812 73.347656 153.667969 71.847656 C 160.011719 69.492188 165.765625 68.898438 172.464844 69.980469 C 178.75 71.378906 183.765625 73.9375 188.84375 77.835938 C 191.363281 71.964844 191.574219 66.210938 191.089844 59.875 C 190.511719 57.269531 189.761719 55.238281 188.097656 53.136719 C 185.363281 51.132812 182.410156 50.09375 179.113281 49.394531 C 173.746094 49.042969 168.882812 50 163.664062 51.152344 C 161.152344 51.640625 161.152344 51.640625 158.160156 51.640625 C 157.386719 50.070312 156.625 48.496094 155.867188 46.917969 L 154.578125 44.261719 L 153.667969 41.914062 L 154.417969 39.667969 C 156.273438 39.03125 158.160156 38.503906 160.078125 38.078125 L 161.644531 37.691406 C 171.597656 35.335938 181.394531 35.015625 191 39.082031 " fill-opacity="1" fill-rule="nonzero"/><path fill="#a5c713" d="M 500.707031 123.726562 C 503.21875 124.636719 505.453125 125.726562 507.675781 127.234375 L 508.425781 124.238281 C 510.515625 124.179688 512.601562 124.132812 514.691406 124.097656 L 516.492188 124.042969 C 518.046875 124.023438 519.597656 124.125 521.148438 124.238281 C 522.644531 126.484375 522.644531 126.484375 522.835938 128.273438 L 522.839844 130.414062 L 522.851562 132.84375 L 522.84375 135.464844 L 522.847656 138.160156 C 522.847656 140.039062 522.847656 141.917969 522.839844 143.796875 C 522.832031 146.679688 522.839844 149.5625 522.847656 152.445312 C 522.847656 154.269531 522.847656 156.09375 522.84375 157.917969 L 522.851562 160.542969 L 522.839844 162.972656 C 522.839844 163.675781 522.835938 164.382812 522.835938 165.113281 C 522.644531 166.898438 522.644531 166.898438 521.148438 169.144531 C 518.628906 169.984375 516.640625 170.019531 513.992188 170.035156 L 511.367188 170.066406 L 509.171875 169.894531 L 507.675781 168.398438 L 507.675781 166.152344 L 506.28125 166.945312 L 504.449219 167.976562 L 502.632812 169 C 499.117188 170.855469 496.015625 170.890625 492.113281 170.851562 C 487.917969 170.484375 484.460938 169.027344 480.898438 166.828125 C 477.140625 164.003906 474.933594 160.027344 473.0625 155.8125 C 471.613281 149.65625 471.480469 144.421875 473.246094 138.300781 C 474.839844 133.875 477.125 130.636719 480.5 127.375 C 486.292969 122.59375 493.617188 121.515625 500.707031 123.726562 M 492.894531 137.382812 C 491.058594 138.558594 489.523438 139.792969 488.179688 141.519531 C 487.003906 143.886719 487.058594 146.089844 487.207031 148.6875 C 487.421875 150.546875 487.421875 150.546875 488.3125 152.632812 C 490.148438 154.65625 491.625 155.496094 494.203125 156.421875 C 496.277344 156.761719 498.121094 156.792969 500.191406 156.421875 C 502.742188 155.125 504.289062 153.910156 506.085938 151.699219 C 507.179688 149.082031 507.222656 147.261719 506.929688 144.445312 C 506.03125 142.121094 505.128906 140.453125 503.464844 138.601562 C 500.132812 136.933594 496.527344 136.640625 492.894531 137.382812 M 200.070312 86.816406 C 207.625 89.070312 214.40625 93.851562 220.109375 99.21875 C 223.984375 103.449219 227.015625 108.199219 228.511719 113.761719 C 228.992188 119.078125 229.035156 124.460938 227.039062 129.472656 C 225.605469 132.265625 223.839844 134.605469 221.777344 136.960938 L 220.328125 138.625 C 215.917969 143.347656 210.929688 146.550781 205.308594 149.6875 L 203.445312 150.734375 C 193.84375 155.808594 183.457031 158.703125 173.003906 161.4375 L 171.097656 161.96875 C 169.386719 162.410156 169.386719 162.410156 166.804688 162.761719 L 164.894531 163.90625 C 163.703125 166.605469 163.121094 169.398438 162.507812 172.28125 C 162.160156 173.820312 161.804688 175.359375 161.449219 176.894531 L 160.9375 179.097656 C 160.257812 181.675781 159.308594 183.960938 158.160156 186.359375 C 157.144531 186.035156 156.132812 185.707031 155.117188 185.378906 L 153.40625 184.824219 C 150.949219 183.945312 148.578125 182.914062 146.183594 181.867188 C 146.765625 178.015625 147.398438 174.144531 149.179688 170.640625 C 151.871094 168.078125 154.933594 166.46875 158.160156 164.65625 C 162.839844 161.164062 166.238281 157.128906 169.515625 152.316406 C 170.886719 150.429688 172.070312 148.917969 173.875 147.441406 C 175.640625 146.773438 177.433594 146.199219 179.253906 145.710938 C 190.773438 142.335938 201.667969 138.105469 210.597656 129.804688 C 212.8125 127.417969 214.097656 125.148438 215.039062 121.996094 C 215.496094 118.894531 215.460938 117.101562 214.347656 114.199219 C 211.378906 108.546875 206.828125 105.183594 201.566406 101.785156 L 199.839844 101.066406 L 198.574219 100.289062 C 197.742188 97.839844 197.714844 95.378906 197.824219 92.804688 C 198.375 90.636719 199.125 88.859375 200.070312 86.816406 M 452.945312 123.164062 C 456.886719 124.820312 459.976562 126.984375 462.769531 130.226562 C 464.828125 133.265625 466.59375 136.316406 467.261719 139.957031 C 467.367188 141.484375 467.425781 143.011719 467.449219 144.539062 L 467.507812 146.933594 L 467.261719 148.9375 C 465.015625 150.433594 465.015625 150.433594 463.582031 150.613281 L 461.945312 150.605469 L 460.082031 150.605469 L 458.085938 150.582031 L 456.027344 150.574219 C 453.863281 150.566406 451.699219 150.546875 449.53125 150.527344 C 448.066406 150.519531 446.597656 150.511719 445.128906 150.507812 C 441.527344 150.492188 437.929688 150.464844 434.328125 150.433594 C 436.496094 153.941406 436.496094 153.941406 439.804688 156.328125 C 442.738281 157.222656 444.753906 157.496094 447.800781 157.171875 C 449.574219 156.484375 451.320312 155.734375 453.039062 154.925781 C 454.449219 154.351562 454.449219 154.351562 456.035156 154.175781 C 457.9375 154.980469 457.9375 154.980469 459.917969 156.1875 L 461.914062 157.367188 C 463.519531 158.667969 463.519531 158.667969 464.207031 160.203125 L 464.265625 161.660156 C 462.039062 164.535156 459.453125 166.265625 456.203125 167.757812 C 450.972656 169.761719 445.945312 170.203125 440.390625 169.601562 C 435.566406 168.652344 431.046875 166.839844 427.082031 163.925781 C 424.261719 161.457031 422.335938 158.898438 420.875 155.429688 C 419.164062 150.320312 418.746094 145.582031 419.710938 140.277344 C 420.890625 135.6875 422.828125 132.160156 426.097656 128.730469 C 429.101562 125.988281 432.394531 123.625 436.285156 122.347656 C 441.859375 121.246094 447.539062 121.417969 452.945312 123.164062 M 437.699219 135.324219 C 435.71875 136.914062 435.71875 136.914062 434.328125 139.207031 L 434.328125 141.453125 L 453.789062 141.453125 C 452.726562 137.097656 452.726562 137.097656 450.421875 135.183594 C 447.449219 133.804688 445.359375 133.542969 442.117188 133.671875 C 440.101562 133.910156 440.101562 133.910156 437.699219 135.324219 M 272.714844 123.585938 C 276.027344 125.003906 278.570312 126.726562 280.902344 129.480469 C 284.082031 134.964844 284.261719 140.792969 284.308594 146.960938 C 284.304688 148.308594 284.296875 149.652344 284.285156 151 C 284.269531 153.070312 284.285156 155.140625 284.304688 157.210938 C 284.304688 158.53125 284.296875 159.851562 284.292969 161.171875 L 284.3125 163.042969 C 284.28125 164.777344 284.28125 164.777344 283.894531 167.648438 C 282.507812 169.15625 282.507812 169.15625 280.902344 169.894531 C 278.75 170.191406 278.75 170.191406 276.410156 170.175781 L 274.070312 170.191406 C 271.921875 169.894531 271.921875 169.894531 270.3125 169.109375 L 268.925781 167.648438 C 268.636719 165.765625 268.5 163.871094 268.523438 161.96875 C 268.515625 161.414062 268.503906 160.859375 268.496094 160.289062 C 268.472656 158.515625 268.460938 156.746094 268.460938 154.972656 C 268.449219 153.203125 268.429688 151.433594 268.40625 149.664062 C 268.390625 148.5625 268.382812 147.464844 268.386719 146.363281 C 268.363281 144.210938 268.257812 142.410156 267.5 140.386719 C 266.753906 139.113281 266.753906 139.113281 265.355469 138.535156 C 262.902344 137.964844 261.09375 137.640625 258.589844 138.085938 C 256.808594 139.140625 256.808594 139.140625 255.75 141.160156 C 254.574219 144.019531 254.351562 146.496094 254.324219 149.539062 L 254.28125 151.183594 C 254.246094 152.898438 254.214844 154.613281 254.191406 156.328125 C 254.167969 157.5 254.140625 158.667969 254.113281 159.835938 C 254.050781 162.691406 254 165.542969 253.957031 168.398438 C 251.34375 169.800781 249.464844 170.136719 246.472656 170.175781 L 244.136719 170.238281 C 241.984375 169.894531 241.984375 169.894531 240.375 168.625 C 238.988281 166.898438 238.988281 166.898438 238.621094 165.023438 L 238.625 162.886719 L 238.613281 160.457031 L 238.644531 157.847656 L 238.648438 155.15625 C 238.652344 153.28125 238.664062 151.40625 238.679688 149.53125 C 238.707031 146.65625 238.710938 143.78125 238.710938 140.902344 C 238.71875 139.082031 238.726562 137.261719 238.738281 135.441406 L 238.742188 132.824219 L 238.773438 130.402344 L 238.789062 128.269531 C 238.988281 126.484375 238.988281 126.484375 240.488281 124.238281 C 242.695312 124.074219 244.742188 124.03125 246.941406 124.097656 L 248.761719 124.128906 C 250.242188 124.15625 251.726562 124.195312 253.210938 124.238281 L 253.957031 127.234375 L 255.328125 126.441406 L 257.140625 125.410156 L 258.929688 124.382812 C 263.300781 122.175781 268.09375 122.058594 272.714844 123.585938 M 295.121094 124.238281 C 297.113281 124.09375 299.109375 124.03125 301.109375 124.050781 L 302.78125 124.035156 C 304.222656 124.039062 305.660156 124.132812 307.097656 124.238281 L 308.59375 125.738281 C 308.75 127.558594 308.820312 129.304688 308.824219 131.128906 L 308.882812 134.429688 C 308.902344 136.160156 308.921875 137.894531 308.933594 139.625 C 308.953125 141.300781 308.980469 142.972656 309.011719 144.644531 L 309.011719 146.199219 C 309.0625 148.761719 309.414062 150.613281 310.386719 153 L 311.585938 154.925781 C 313.15625 155.675781 313.15625 155.675781 314.910156 155.671875 L 316.636719 155.8125 C 318.335938 155.734375 318.335938 155.734375 319.941406 155.160156 C 321.425781 154.253906 321.425781 154.253906 322.136719 152.601562 C 322.964844 149.953125 323.050781 147.464844 323.070312 144.71875 L 323.105469 143.085938 C 323.152344 140.789062 323.179688 138.492188 323.210938 136.195312 C 323.238281 134.515625 323.269531 132.835938 323.304688 131.152344 L 323.316406 129.574219 C 323.34375 128.292969 323.445312 127.011719 323.5625 125.738281 L 325.058594 124.238281 C 327.050781 124.074219 329.046875 123.996094 331.046875 124.007812 L 332.71875 123.96875 C 334.320312 123.96875 334.320312 123.96875 337.035156 124.238281 C 338.53125 126.484375 338.53125 126.484375 338.730469 128.269531 L 338.75 130.402344 L 338.777344 132.824219 L 338.78125 135.441406 L 338.796875 138.125 C 338.804688 140.003906 338.808594 141.878906 338.808594 143.757812 C 338.8125 146.632812 338.839844 149.503906 338.867188 152.378906 C 338.871094 154.203125 338.875 156.023438 338.875 157.84375 L 338.90625 160.457031 L 338.894531 162.886719 L 338.902344 165.019531 C 338.53125 166.898438 338.53125 166.898438 337.167969 168.625 L 335.539062 169.894531 C 333.003906 170.238281 333.003906 170.238281 330.203125 170.175781 L 327.390625 170.144531 C 326.621094 170.0625 325.851562 169.980469 325.058594 169.894531 L 323.5625 168.398438 L 323.5625 166.152344 L 322.332031 166.945312 L 320.707031 167.976562 L 319.105469 169 C 316.417969 170.570312 314.128906 170.800781 311.074219 170.875 C 307.46875 170.832031 304.78125 170.484375 301.667969 168.640625 C 298.371094 166.136719 296.375 163.554688 294.703125 159.765625 C 293.398438 156.210938 293.3125 152.933594 293.351562 149.175781 L 293.351562 147.148438 C 293.355469 145.746094 293.359375 144.34375 293.375 142.941406 C 293.390625 140.789062 293.386719 138.636719 293.382812 136.484375 C 293.386719 135.117188 293.394531 133.75 293.398438 132.382812 L 293.398438 130.429688 C 293.417969 128.863281 293.515625 127.300781 293.625 125.738281 Z M 127.597656 13.347656 C 134.816406 16.132812 140.214844 20.535156 145.203125 26.382812 C 154.503906 38.300781 160.1875 52.65625 163.398438 67.359375 L 163.398438 69.605469 C 161.71875 70.164062 160.035156 70.710938 158.347656 71.242188 L 155.503906 72.164062 C 152.921875 72.597656 152.921875 72.597656 151.222656 72 C 149.175781 69.394531 148.566406 66.457031 147.726562 63.289062 C 147.339844 61.921875 146.949219 60.558594 146.554688 59.195312 L 145.980469 57.195312 C 143.375 48.515625 138.753906 38.46875 132.476562 31.78125 C 129.367188 29.074219 126.042969 26.695312 121.960938 25.8125 C 119.050781 25.667969 116.625 26.164062 113.953125 27.316406 C 107.496094 31.015625 103.820312 36.75 100.132812 42.988281 L 99.03125 44.90625 C 96.078125 44.4375 93.644531 43.511719 90.941406 42.238281 L 88.726562 41.207031 L 87.058594 40.414062 C 90.410156 31.609375 96.347656 24.167969 103.605469 18.195312 C 110.894531 13.136719 118.847656 11.039062 127.597656 13.347656 M 380.398438 123.164062 C 383.738281 124.574219 386.414062 126.457031 389.152344 128.820312 L 390.171875 130.226562 C 390.328125 132.265625 390.328125 132.265625 390.171875 133.96875 C 386.785156 136.269531 383.476562 138.371094 379.695312 139.957031 C 377.679688 139.652344 376.738281 139.027344 375.101562 137.851562 C 373.734375 136.859375 373.734375 136.859375 372.007812 136.636719 C 369.066406 136.558594 367.144531 136.890625 364.398438 138.039062 C 362.503906 139.933594 362.011719 140.703125 361.3125 143.183594 C 361.011719 145.011719 360.925781 146.398438 361.296875 148.214844 C 362.074219 150.238281 363.082031 151.78125 364.585938 153.335938 C 366.710938 154.429688 368.320312 154.785156 370.714844 154.925781 C 373.492188 154.390625 373.492188 154.390625 375.953125 153.429688 L 377.449219 151.929688 C 381.445312 151.929688 384.496094 153.933594 387.871094 155.847656 L 389.425781 157.171875 C 390.019531 159.195312 390.019531 159.195312 390.171875 160.914062 C 386.109375 164.953125 382.25 167.589844 376.699219 169.144531 C 371.347656 170.296875 366.214844 170.019531 360.984375 168.398438 C 356.25 166.285156 352.570312 163.449219 349.308594 159.429688 C 347.089844 156.238281 345.726562 152.8125 345.265625 148.9375 C 344.855469 143.890625 345.445312 139.367188 347.511719 134.71875 C 349.894531 130.847656 352.746094 127.441406 356.605469 124.984375 C 363.902344 121.058594 372.511719 120.621094 380.398438 123.164062 " fill-opacity="1" fill-rule="nonzero"/><path fill="#2082c4" d="M 240.488281 38.171875 C 241.90625 37.976562 241.90625 37.976562 243.65625 37.964844 L 245.636719 37.941406 L 247.785156 37.945312 L 249.980469 37.933594 C 251.515625 37.929688 253.050781 37.929688 254.585938 37.933594 C 256.941406 37.9375 259.296875 37.917969 261.652344 37.898438 C 263.140625 37.898438 264.632812 37.898438 266.121094 37.898438 L 268.265625 37.878906 L 270.25 37.890625 L 271.996094 37.890625 L 273.417969 38.171875 L 274.914062 40.414062 C 274.679688 43.128906 274.679688 43.128906 274.164062 45.652344 L 273.417969 46.402344 C 271.59375 46.46875 269.765625 46.492188 267.941406 46.476562 L 266.285156 46.472656 C 264.53125 46.46875 262.777344 46.457031 261.023438 46.449219 L 257.460938 46.4375 C 254.546875 46.433594 251.632812 46.417969 248.71875 46.402344 L 248.71875 64.363281 L 253.578125 64.3125 C 255.128906 64.300781 256.679688 64.292969 258.230469 64.28125 C 259.308594 64.273438 260.386719 64.265625 261.464844 64.253906 C 263.015625 64.234375 264.566406 64.226562 266.113281 64.21875 L 268.941406 64.195312 L 271.171875 64.363281 L 272.667969 65.863281 C 272.855469 68.480469 272.855469 68.480469 272.667969 71.101562 L 271.171875 72.597656 C 268.941406 72.769531 268.941406 72.769531 266.113281 72.742188 L 264.609375 72.738281 C 263.023438 72.730469 261.4375 72.710938 259.851562 72.691406 C 258.777344 72.683594 257.703125 72.675781 256.628906 72.671875 C 253.992188 72.65625 251.355469 72.625 248.71875 72.597656 L 248.71875 92.804688 L 254.234375 92.753906 C 255.992188 92.742188 257.75 92.730469 259.507812 92.722656 C 260.734375 92.714844 261.957031 92.707031 263.179688 92.691406 C 264.9375 92.675781 266.695312 92.667969 268.453125 92.660156 L 270.117188 92.636719 C 271.46875 92.636719 272.820312 92.714844 274.164062 92.804688 L 275.664062 94.300781 C 275.851562 96.5 275.851562 96.5 275.664062 98.792969 L 274.164062 101.039062 C 272.71875 101.324219 272.71875 101.324219 270.929688 101.328125 L 268.898438 101.351562 L 266.703125 101.335938 L 264.457031 101.34375 C 262.886719 101.34375 261.316406 101.339844 259.746094 101.332031 C 257.335938 101.320312 254.925781 101.332031 252.515625 101.347656 C 250.992188 101.34375 249.46875 101.339844 247.949219 101.335938 L 245.753906 101.351562 L 243.722656 101.328125 L 241.933594 101.324219 L 240.488281 101.039062 C 238.988281 98.792969 238.988281 98.792969 238.800781 96.289062 C 238.789062 95.238281 238.789062 94.1875 238.796875 93.132812 L 238.789062 91.394531 C 238.78125 89.492188 238.785156 87.59375 238.789062 85.691406 L 238.785156 81.734375 C 238.785156 78.972656 238.785156 76.207031 238.792969 73.445312 C 238.804688 69.898438 238.796875 66.347656 238.789062 62.800781 C 238.785156 60.078125 238.785156 57.355469 238.789062 54.632812 C 238.789062 53.324219 238.789062 52.015625 238.785156 50.707031 C 238.78125 48.878906 238.789062 47.054688 238.796875 45.226562 L 238.785156 43.582031 C 238.796875 42.273438 238.886719 40.96875 238.988281 39.667969 Z M 334.460938 54.261719 C 338.84375 56.023438 342.167969 58.5625 345.265625 62.121094 C 347.523438 65.570312 348.855469 69.019531 349.160156 73.140625 L 349.195312 75.3125 L 349.253906 77.492188 L 349.007812 79.332031 C 346.761719 80.832031 346.761719 80.832031 345.1875 81.011719 L 343.347656 81 L 341.261719 81 L 339.011719 80.976562 L 336.707031 80.96875 C 334.273438 80.960938 331.84375 80.941406 329.410156 80.925781 C 327.761719 80.917969 326.113281 80.910156 324.464844 80.902344 C 320.421875 80.886719 316.378906 80.863281 312.335938 80.832031 C 312.90625 82.039062 313.480469 83.25 314.0625 84.453125 L 315.03125 86.488281 C 316.039062 88.246094 316.753906 89.125 318.417969 90.230469 C 321.734375 91.890625 324.222656 92.195312 327.914062 92.242188 L 330.640625 92.300781 C 333.53125 92.035156 335.285156 91.253906 337.78125 89.8125 L 340.777344 88.316406 C 342.304688 89.261719 343.804688 90.261719 345.265625 91.308594 L 346.015625 93.554688 C 342.996094 97.0625 339.859375 98.699219 335.535156 100.289062 C 331.355469 101.578125 326.644531 101.484375 322.371094 100.667969 C 317.472656 99.332031 313.386719 97.304688 309.574219 93.933594 C 306.730469 90.960938 305.144531 87.6875 303.875 83.792969 C 302.804688 79.242188 302.851562 75.03125 303.796875 70.464844 C 305.277344 65.621094 307.757812 62.085938 311.253906 58.453125 C 317.730469 52.886719 326.449219 51.707031 334.460938 54.261719 M 319.539062 62.167969 C 316.972656 64.0625 314.726562 66.097656 313.082031 68.855469 L 312.335938 73.347656 L 340.027344 73.347656 C 339.675781 68.566406 339.675781 68.566406 338.355469 66.5 L 337.21875 65.253906 L 336.109375 63.976562 C 334.476562 62.605469 333.085938 62 331.046875 61.371094 C 327.097656 60.960938 323.335938 60.972656 319.539062 62.167969 M 446.199219 55.121094 C 450.734375 56.769531 454.28125 59.316406 457.53125 62.867188 C 459.957031 65.949219 461.808594 69.210938 462.605469 73.097656 C 463.066406 78.011719 462.882812 83.261719 460.804688 87.800781 C 458.609375 91.539062 455.941406 95.113281 452.304688 97.535156 C 447.460938 100.070312 442.5625 101.40625 437.085938 101.273438 C 432.191406 100.703125 427.699219 98.816406 423.617188 96.078125 C 420.257812 93.34375 418.175781 89.972656 416.367188 86.070312 C 414.828125 81.902344 414.664062 78.03125 415.277344 73.648438 C 416.199219 68.804688 417.769531 65.734375 421 61.933594 C 424.316406 58.414062 427.308594 56.414062 431.949219 54.957031 C 436.566406 54.046875 441.617188 54.082031 446.199219 55.121094 M 430.375 64.164062 C 427.738281 66.113281 425.9375 68.363281 424.519531 71.347656 C 423.3125 74.96875 423.472656 78.5625 423.851562 82.328125 C 424.441406 84.710938 425.277344 86.425781 426.84375 88.316406 C 429.34375 90.558594 431.921875 92.28125 435.140625 93.300781 C 438.273438 93.839844 441.140625 93.492188 444.148438 92.59375 C 447.007812 91.503906 449.128906 90.132812 451.128906 87.800781 C 453.027344 85.109375 454.066406 82.648438 454.535156 79.378906 C 454.695312 76.164062 454.3125 73.441406 453.152344 70.433594 C 451.640625 67.65625 449.59375 65.488281 447.050781 63.617188 C 443.707031 61.984375 440.839844 61.808594 437.160156 61.886719 C 434.554688 62.179688 432.636719 62.851562 430.375 64.164062 " fill-opacity="1" fill-rule="nonzero"/><path fill="#a5c713" d="M 398.40625 107.027344 C 400.511719 107.003906 402.617188 106.988281 404.71875 106.980469 L 406.539062 106.960938 C 408.070312 106.953125 409.601562 106.988281 411.128906 107.027344 L 411.878906 107.773438 C 411.949219 109.664062 411.972656 111.535156 411.960938 113.425781 L 411.960938 115.214844 C 411.960938 117.179688 411.957031 119.144531 411.949219 121.109375 L 411.945312 125.183594 C 411.945312 128.765625 411.9375 132.347656 411.929688 135.929688 C 411.921875 139.582031 411.917969 143.230469 411.914062 146.882812 C 411.90625 154.054688 411.894531 161.226562 411.878906 168.398438 C 409.230469 169.828125 407.375 170.097656 404.347656 170.082031 L 401.980469 170.09375 C 399.902344 169.894531 399.902344 169.894531 397.65625 168.398438 C 396.769531 165.734375 396.808594 163.601562 396.800781 160.792969 L 396.792969 159.144531 C 396.785156 157.351562 396.78125 155.554688 396.78125 153.757812 L 396.773438 150.015625 C 396.769531 147.398438 396.769531 144.78125 396.769531 142.164062 C 396.769531 138.8125 396.757812 135.457031 396.746094 132.105469 C 396.738281 129.527344 396.734375 126.949219 396.738281 124.371094 C 396.738281 123.136719 396.734375 121.898438 396.726562 120.664062 C 396.71875 118.933594 396.722656 117.203125 396.726562 115.476562 L 396.722656 112.496094 C 396.894531 110.199219 397.183594 108.9375 398.40625 107.027344 M 560.816406 123.492188 L 561.5625 124.238281 C 561.628906 125.246094 561.644531 126.253906 561.636719 127.257812 L 561.628906 129.09375 L 561.609375 131.023438 L 561.601562 132.957031 C 561.589844 134.542969 561.578125 136.128906 561.5625 137.710938 C 559.453125 138.765625 557.375 138.742188 555.042969 138.925781 C 553.101562 139.246094 551.953125 139.566406 550.335938 140.703125 C 548.910156 143.082031 548.125 144.882812 547.816406 147.652344 L 547.8125 150.277344 L 547.773438 153.160156 C 547.769531 154.65625 547.765625 156.152344 547.765625 157.648438 C 547.757812 159.105469 547.746094 160.5625 547.71875 162.019531 L 547.714844 164.640625 C 547.34375 166.898438 547.34375 166.898438 545.957031 168.683594 C 544.347656 169.894531 544.347656 169.894531 542.171875 170.210938 L 539.8125 170.128906 L 537.445312 170.070312 C 535.367188 169.894531 535.367188 169.894531 533.121094 169.144531 C 532.15625 167.214844 532.273438 165.816406 532.265625 163.65625 L 532.25 161.128906 L 532.25 158.386719 L 532.242188 155.585938 C 532.238281 153.625 532.234375 151.667969 532.234375 149.710938 C 532.234375 147.699219 532.230469 145.6875 532.222656 143.675781 C 532.207031 140.78125 532.203125 137.890625 532.203125 135 L 532.1875 132.257812 L 532.191406 129.730469 L 532.191406 127.496094 L 532.375 125.738281 L 533.871094 124.238281 C 535.925781 124.132812 537.902344 124.097656 539.953125 124.144531 L 541.664062 124.167969 C 543.058594 124.183594 544.453125 124.210938 545.847656 124.238281 L 548.089844 128.730469 L 549.324219 127.773438 L 550.945312 126.53125 L 552.550781 125.292969 C 555.277344 123.414062 557.585938 123.351562 560.816406 123.492188 " fill-opacity="1" fill-rule="nonzero"/><path fill="#2082c4" d="M 37.660156 157.171875 C 40.367188 159.671875 42.320312 162.71875 44.445312 165.707031 C 45.75 167.609375 45.75 167.609375 47.160156 168.710938 C 48.140625 169.894531 48.140625 169.894531 48.582031 172.21875 L 48.839844 174.945312 C 49.359375 179.339844 49.359375 179.339844 50.851562 183.460938 C 52.683594 185.675781 53.964844 186.980469 56.585938 188.113281 C 64.894531 190.121094 73.71875 188.515625 81.820312 186.359375 C 82.570312 187.929688 83.320312 189.507812 84.0625 191.085938 L 85.328125 193.742188 C 86.308594 196.089844 86.308594 196.089844 86.308594 198.335938 C 84.765625 198.820312 83.222656 199.304688 81.679688 199.785156 L 79.074219 200.601562 C 71.554688 202.792969 63.203125 202.839844 55.460938 201.730469 C 50.425781 200.378906 46.171875 197.632812 42.335938 194.148438 C 38.792969 190.378906 36.960938 185.820312 35.722656 180.84375 C 34.453125 172.691406 35.621094 165.058594 37.660156 157.171875 M 362.480469 45.652344 C 363.882812 45.382812 363.882812 45.382812 365.472656 45.421875 L 367.066406 45.429688 C 367.757812 45.542969 367.757812 45.542969 368.46875 45.652344 L 369.964844 47.152344 C 370.109375 48.933594 370.109375 48.933594 370.058594 50.988281 L 370.015625 53.050781 L 369.964844 54.636719 L 371.6875 54.582031 L 373.941406 54.542969 L 376.175781 54.488281 C 378.199219 54.636719 378.199219 54.636719 380.441406 56.132812 C 380.675781 58.75 380.675781 58.75 380.441406 61.371094 L 378.945312 62.867188 C 376.835938 63.015625 376.835938 63.015625 374.363281 62.960938 L 371.878906 62.921875 L 369.964844 62.867188 C 370.015625 66.664062 370.082031 70.460938 370.160156 74.257812 C 370.1875 75.546875 370.207031 76.839844 370.222656 78.132812 C 370.25 79.988281 370.289062 81.84375 370.332031 83.699219 L 370.34375 85.449219 C 370.371094 87.269531 370.371094 87.269531 370.714844 89.8125 C 371.640625 91.316406 371.640625 91.316406 372.957031 92.058594 C 374.628906 92.617188 374.628906 92.617188 376.421875 92.898438 C 377.515625 93.101562 378.605469 93.316406 379.695312 93.554688 L 380.441406 94.300781 C 380.582031 96.875 380.582031 96.875 380.441406 99.542969 L 378.945312 101.039062 C 374.882812 101.394531 371.539062 100.929688 367.703125 99.53125 C 366.222656 98.792969 366.222656 98.792969 364.398438 96.96875 L 363.230469 95.050781 L 362.339844 93.648438 C 360.808594 89.640625 360.894531 85.300781 360.910156 81.066406 C 360.910156 80.542969 360.914062 80.019531 360.914062 79.480469 C 360.917969 77.824219 360.925781 76.171875 360.9375 74.515625 C 360.941406 73.386719 360.945312 72.253906 360.945312 71.125 C 360.957031 68.375 360.96875 65.621094 360.984375 62.867188 L 358.082031 62.914062 C 355.183594 62.960938 355.183594 62.960938 353.5 62.121094 C 353.28125 57.589844 353.28125 57.589844 353.5 56.132812 L 355.746094 54.636719 C 357.492188 54.574219 359.238281 54.574219 360.984375 54.636719 L 360.929688 53.242188 L 360.890625 51.40625 L 360.835938 49.59375 C 360.984375 47.898438 360.984375 47.898438 362.480469 45.652344 M 286.890625 38.171875 C 291.183594 37.964844 291.183594 37.964844 292.875 38.171875 L 294.375 39.667969 C 294.519531 41.546875 294.582031 43.425781 294.566406 45.308594 L 294.574219 47.074219 C 294.582031 49 294.578125 50.929688 294.574219 52.859375 L 294.578125 56.867188 C 294.578125 59.671875 294.578125 62.476562 294.570312 65.277344 C 294.558594 68.878906 294.566406 72.476562 294.574219 76.074219 C 294.578125 78.835938 294.578125 81.597656 294.574219 84.359375 C 294.574219 85.6875 294.574219 87.011719 294.578125 88.339844 C 294.582031 90.195312 294.574219 92.046875 294.566406 93.898438 L 294.578125 95.570312 C 294.566406 96.894531 294.476562 98.222656 294.375 99.542969 L 292.875 101.039062 C 288.144531 101.292969 288.144531 101.292969 286.140625 100.289062 C 286.125 92.300781 286.109375 84.3125 286.101562 76.324219 C 286.097656 72.613281 286.09375 68.90625 286.085938 65.195312 C 286.078125 61.617188 286.070312 58.042969 286.070312 54.464844 C 286.066406 53.097656 286.066406 51.730469 286.0625 50.363281 C 286.058594 48.453125 286.054688 46.546875 286.054688 44.636719 L 286.046875 42.90625 C 286.050781 41.578125 286.089844 40.246094 286.140625 38.917969 Z M 414.121094 54.636719 L 414.871094 55.382812 C 414.945312 56.628906 414.96875 57.878906 414.964844 59.125 L 414.96875 61.183594 L 414.871094 62.867188 L 414.121094 63.617188 C 413.078125 63.714844 412.035156 63.789062 410.988281 63.851562 C 408.488281 64.113281 407.175781 64.46875 404.859375 65.628906 C 402.636719 67.589844 401.699219 69.085938 400.652344 71.847656 C 399.957031 75.25 399.761719 78.554688 399.664062 82.015625 L 399.617188 83.609375 C 399.570312 85.269531 399.523438 86.933594 399.480469 88.59375 L 399.382812 91.996094 C 399.304688 94.761719 399.226562 97.523438 399.152344 100.289062 C 396.898438 101.417969 394.902344 101.171875 392.417969 101.039062 L 390.921875 99.542969 C 390.730469 97.75 390.730469 97.75 390.726562 95.480469 L 390.714844 92.90625 L 390.722656 90.117188 L 390.71875 87.265625 C 390.714844 85.269531 390.71875 83.277344 390.726562 81.285156 C 390.734375 78.726562 390.730469 76.171875 390.71875 73.613281 C 390.714844 71.175781 390.71875 68.742188 390.722656 66.304688 L 390.714844 63.515625 L 390.726562 60.941406 C 390.726562 60.191406 390.730469 59.441406 390.730469 58.671875 L 390.921875 56.878906 L 392.417969 55.382812 C 397.148438 55.128906 397.148438 55.128906 399.152344 56.132812 C 399.457031 57.871094 399.710938 59.617188 399.902344 61.371094 L 401.082031 60.277344 C 405.332031 56.425781 408.167969 54.230469 414.121094 54.636719 " fill-opacity="1" fill-rule="nonzero"/><path fill="#838282" d="M 333.292969 195.339844 L 335.539062 196.835938 L 336.285156 195.339844 L 339.277344 196.089844 C 339.34375 198.738281 339.382812 201.390625 339.421875 204.039062 L 339.476562 206.304688 C 339.507812 209.585938 339.429688 212.125 338.335938 215.238281 C 337.035156 217.046875 337.035156 217.046875 335.605469 218.058594 C 332.835938 218.914062 330.167969 218.894531 327.304688 218.542969 C 325.011719 217.417969 325.011719 217.417969 323.5625 216.296875 L 324.3125 214.050781 L 325.433594 214.425781 C 328.101562 214.960938 330.566406 214.886719 333.292969 214.800781 L 334.789062 214.050781 C 335.332031 212.570312 335.835938 211.074219 336.285156 209.5625 L 334.367188 210.730469 C 331.796875 211.804688 331.796875 211.804688 329.128906 211.804688 C 326.554688 211.058594 326.554688 211.058594 324.402344 209.234375 C 322.8125 207.316406 322.8125 207.316406 322.066406 205.820312 C 321.851562 203.003906 321.847656 201.074219 323 198.476562 C 324.3125 196.835938 324.3125 196.835938 325.574219 195.855469 C 328.246094 195.0625 330.5 195.164062 333.292969 195.339844 M 327.773438 198.242188 L 325.808594 199.832031 C 324.746094 202.339844 324.746094 202.339844 325.058594 205.070312 C 326.429688 207.441406 326.429688 207.441406 328.800781 208.8125 C 331.523438 209.003906 331.523438 209.003906 334.039062 208.0625 C 335.660156 206.941406 335.660156 206.941406 336.285156 205.070312 C 336.53125 202.375 336.53125 202.375 335.539062 199.832031 C 332.621094 197.886719 331.191406 197.355469 327.773438 198.242188 M 430.585938 195.339844 L 434.328125 196.089844 L 435.078125 195.339844 C 437.675781 195.195312 439.714844 195.09375 442.140625 196.089844 L 443.3125 196.835938 L 444.808594 195.339844 C 448.980469 194.9375 448.980469 194.9375 450.796875 195.339844 C 452.472656 196.421875 452.472656 196.421875 453.789062 198.335938 C 454.152344 200.65625 454.070312 202.917969 453.976562 205.257812 L 453.933594 207.164062 C 453.898438 208.710938 453.847656 210.257812 453.789062 211.804688 L 450.796875 211.804688 L 450.046875 198.335938 L 444.808594 199.082031 L 444.058594 211.058594 L 441.066406 211.804688 L 440.316406 211.058594 C 440.140625 209.046875 440 207.039062 439.898438 205.023438 L 439.796875 203.300781 C 439.71875 201.894531 439.644531 200.488281 439.570312 199.082031 C 438.1875 198.566406 438.1875 198.566406 436.574219 198.335938 L 434.328125 199.832031 C 434.046875 201.847656 433.875 203.875 433.816406 205.910156 L 433.738281 207.621094 C 433.679688 209.015625 433.625 210.410156 433.582031 211.804688 L 430.585938 211.804688 Z M 462.769531 195.339844 L 465.765625 196.089844 L 467.261719 196.089844 L 468.007812 195.339844 C 470.539062 195.011719 472.964844 194.980469 475.492188 195.339844 C 477.605469 196.980469 478.796875 198.207031 479.984375 200.578125 C 480.257812 202.855469 480.273438 205.039062 479.984375 207.316406 C 478.707031 209.457031 477.609375 210.625 475.585938 212.039062 C 473.457031 212.730469 471.730469 212.738281 469.507812 212.554688 L 466.511719 211.058594 L 465.765625 217.792969 L 462.769531 218.542969 Z M 468.992188 198.148438 C 467.046875 199.023438 467.046875 199.023438 465.765625 201.328125 C 465.390625 203.507812 465.390625 203.507812 465.765625 205.820312 C 466.820312 208.054688 466.820312 208.054688 468.757812 209.5625 C 471.378906 210.183594 471.378906 210.183594 473.996094 209.5625 C 475.9375 208.054688 475.9375 208.054688 476.992188 205.820312 C 477.425781 203.542969 477.425781 203.542969 476.992188 201.328125 C 476.199219 199.542969 476.199219 199.542969 474.746094 198.335938 C 472.484375 197.5 471.316406 197.5 468.992188 198.148438 M 493.546875 195.140625 L 495.28125 195.152344 L 497.007812 195.140625 C 498.855469 195.359375 500.085938 195.917969 501.6875 196.835938 L 501.6875 195.339844 L 504.683594 196.089844 L 504.683594 211.804688 L 501.6875 211.804688 L 501.6875 210.308594 L 500.144531 211.433594 C 497.945312 212.554688 497.945312 212.554688 495.375 212.882812 C 492.707031 212.554688 492.707031 212.554688 490.230469 211.292969 C 488.21875 209.5625 488.21875 209.5625 487.1875 207.78125 C 486.632812 205.449219 486.425781 203.71875 486.71875 201.328125 C 489.914062 195.597656 489.914062 195.597656 493.546875 195.140625 M 492.894531 198.007812 C 491.109375 198.976562 491.109375 198.976562 490.183594 200.765625 C 489.613281 203.273438 489.714844 204.855469 490.460938 207.316406 C 491.65625 208.820312 491.65625 208.820312 493.457031 209.5625 C 495.703125 209.996094 495.703125 209.996094 497.945312 209.5625 C 499.753906 208.375 499.753906 208.375 500.941406 206.566406 C 501.75 204.769531 501.75 204.769531 501.6875 202.824219 C 500.988281 200.738281 500.988281 200.738281 499.445312 199.082031 C 496.972656 197.847656 495.609375 197.449219 492.894531 198.007812 M 239.738281 189.351562 L 252.460938 189.351562 L 251.710938 192.347656 L 242.730469 192.347656 L 242.730469 198.335938 L 250.964844 198.335938 L 251.710938 201.328125 L 250.964844 202.078125 C 249.578125 202.128906 248.1875 202.140625 246.800781 202.125 L 244.507812 202.101562 L 242.730469 202.078125 L 242.730469 208.8125 L 251.710938 208.8125 L 252.460938 211.804688 L 239.738281 211.804688 Z M 368.378906 195.117188 C 369.964844 195.339844 369.964844 195.339844 372.210938 196.835938 L 372.957031 195.339844 L 375.953125 195.339844 L 375.953125 211.804688 L 372.210938 211.058594 C 371.195312 211.523438 370.199219 212.023438 369.214844 212.554688 C 366.859375 212.757812 364.746094 212.496094 362.480469 211.804688 C 360.613281 210.457031 359.980469 209.371094 358.738281 207.316406 C 357.988281 205.117188 357.988281 205.117188 357.988281 202.824219 C 358.832031 200.210938 359.6875 198.242188 361.453125 196.136719 C 363.800781 195.085938 365.828125 195.101562 368.378906 195.113281 M 364.164062 198.613281 C 362.582031 199.6875 362.582031 199.6875 361.730469 200.578125 C 361.558594 202.71875 361.441406 204.46875 361.730469 206.566406 C 362.824219 208.53125 362.824219 208.53125 364.726562 209.558594 C 366.9375 210.121094 366.9375 210.121094 369.214844 209.558594 C 371.460938 208.0625 371.460938 208.0625 372.957031 205.816406 C 373.519531 203.539062 373.519531 203.539062 372.957031 201.328125 C 371.773438 199.519531 371.773438 199.519531 369.964844 198.332031 C 367.4375 197.363281 366.609375 197.390625 364.164062 198.613281 M 289.363281 195.0625 C 291.34375 195.011719 293.164062 195.023438 295.121094 195.339844 C 297.234375 196.980469 298.425781 198.207031 299.613281 200.578125 L 299.613281 205.070312 L 286.140625 205.070312 L 289.132812 208.8125 C 292.042969 209.125 294.582031 208.957031 297.367188 208.0625 L 297.367188 211.058594 C 295.464844 212.273438 294.121094 212.582031 291.847656 212.835938 C 289.132812 212.554688 289.132812 212.554688 286.65625 211.199219 C 284.644531 209.5625 284.644531 209.5625 283.148438 207.316406 C 282.820312 205.046875 282.882812 202.851562 283.148438 200.578125 C 284.128906 198.382812 284.128906 198.382812 285.390625 196.835938 C 287.636719 195.339844 287.636719 195.339844 289.363281 195.0625 M 288.574219 198.519531 L 286.890625 199.832031 L 286.140625 202.078125 C 288.589844 202.847656 290.527344 202.796875 293.0625 202.496094 L 295.085938 202.265625 L 296.617188 202.078125 C 295.753906 200.175781 295.753906 200.175781 294.375 198.335938 C 291.921875 197.300781 291 197.417969 288.574219 198.519531 " fill-opacity="1" fill-rule="nonzero"/><path fill="#2082c4" d="M 57.121094 93.554688 L 60.863281 101.785156 C 59.292969 102.808594 57.71875 103.824219 56.140625 104.828125 L 54.789062 105.710938 C 53.605469 106.457031 52.371094 107.121094 51.132812 107.773438 L 48.886719 107.027344 C 47.6875 104.988281 47.6875 104.988281 46.503906 102.488281 L 45.300781 99.984375 L 44.398438 98.042969 C 46.09375 97.292969 47.796875 96.542969 49.496094 95.800781 C 50.21875 95.476562 50.21875 95.476562 50.953125 95.148438 C 53.136719 94.199219 54.714844 93.554688 57.121094 93.554688 " fill-opacity="1" fill-rule="nonzero"/><path fill="#838282" d="M 260.695312 195.339844 L 263.6875 195.339844 L 263.6875 196.835938 L 265.933594 195.339844 C 270.152344 194.796875 270.152344 194.796875 271.921875 195.339844 C 273.609375 196.886719 274.609375 197.871094 275.664062 199.832031 C 276.085938 201.949219 276.023438 203.949219 275.898438 206.097656 L 275.84375 207.769531 C 275.800781 209.117188 275.734375 210.460938 275.664062 211.804688 L 272.667969 211.804688 L 272.558594 209.78125 L 272.386719 207.128906 C 272.335938 206.261719 272.285156 205.390625 272.230469 204.496094 C 271.945312 202.285156 271.648438 200.921875 270.421875 199.082031 C 268.996094 198.398438 268.996094 198.398438 267.429688 198.335938 L 265.183594 199.082031 C 264.046875 201.359375 264.15625 203.78125 264.015625 206.285156 L 263.917969 207.886719 C 263.839844 209.195312 263.761719 210.5 263.6875 211.804688 L 260.695312 211.804688 Z M 397.65625 189.351562 L 401.398438 189.351562 L 401.398438 208.8125 L 410.378906 208.8125 L 411.128906 211.804688 L 397.65625 211.804688 Z M 307.84375 195.339844 L 310.089844 195.339844 L 310.839844 196.835938 L 313.085938 195.339844 L 316.078125 195.339844 L 316.078125 198.335938 L 311.585938 199.082031 L 310.089844 211.804688 L 307.097656 211.804688 C 307.074219 209.203125 307.058594 206.597656 307.050781 203.996094 L 307.03125 201.742188 L 307.023438 199.601562 L 307.011719 197.617188 L 307.097656 196.089844 Z M 307.84375 195.339844 " fill-opacity="1" fill-rule="nonzero"/><path fill="#838282" d="M 260.695312 195.339844 L 263.6875 195.339844 L 263.6875 196.835938 L 267.429688 195.339844 L 267.429688 197.585938 L 265.96875 198.859375 L 264.4375 200.578125 C 264.101562 202.605469 263.917969 204.351562 263.875 206.378906 L 263.808594 207.960938 C 263.757812 209.242188 263.71875 210.523438 263.6875 211.804688 L 260.695312 211.804688 Z M 419.363281 195.339844 L 421.605469 195.339844 L 421.605469 211.804688 L 418.613281 211.804688 C 418.59375 209.203125 418.578125 206.597656 418.566406 203.996094 L 418.546875 201.742188 L 418.539062 199.601562 L 418.527344 197.617188 L 418.613281 196.089844 Z M 348.261719 195.339844 L 350.503906 195.339844 L 350.503906 211.804688 L 347.511719 211.804688 C 347.492188 209.203125 347.476562 206.597656 347.464844 203.996094 L 347.445312 201.742188 L 347.4375 199.601562 L 347.425781 197.617188 L 347.511719 196.089844 Z M 418.613281 189.351562 L 421.605469 189.351562 L 421.605469 192.347656 L 418.613281 192.347656 Z M 348.261719 189.351562 L 351.253906 190.101562 L 350.503906 192.347656 L 347.511719 191.597656 Z M 348.261719 189.351562 " fill-opacity="1" fill-rule="nonzero"/></svg>